<svg id="visual" viewBox="0 0 3000 700" width="3000" height="700" xmlns="http://www.w3.org/2000/svg" xmlns:xlink="http://www.w3.org/1999/xlink" version="1.1"><rect x="0" y="0" width="3000" height="700" fill="#001122"></rect><path d="M0 427L21.7 424C43.3 421 86.7 415 130.2 417.7C173.7 420.3 217.3 431.7 260.8 436.8C304.3 442 347.7 441 391.2 435.7C434.7 430.3 478.3 420.7 521.8 413.5C565.3 406.3 608.7 401.7 652.2 405.2C695.7 408.7 739.3 420.3 782.8 428.8C826.3 437.3 869.7 442.7 913 446.2C956.3 449.7 999.7 451.3 1043.2 447.5C1086.7 443.7 1130.3 434.3 1173.8 429.3C1217.3 424.3 1260.7 423.7 1304.2 421.8C1347.7 420 1391.3 417 1434.8 421C1478.3 425 1521.7 436 1565.2 439.2C1608.7 442.3 1652.3 437.7 1695.8 435.3C1739.3 433 1782.7 433 1826.2 432.8C1869.7 432.7 1913.3 432.3 1956.8 427.5C2000.3 422.7 2043.7 413.3 2087 411.8C2130.3 410.3 2173.7 416.7 2217.2 424C2260.7 431.3 2304.3 439.7 2347.8 436.7C2391.3 433.7 2434.7 419.3 2478.2 411.7C2521.7 404 2565.3 403 2608.8 408.2C2652.3 413.3 2695.7 424.7 2739.2 431C2782.7 437.3 2826.3 438.7 2869.8 441.2C2913.3 443.7 2956.7 447.3 2978.3 449.2L3000 451L3000 701L2978.3 701C2956.7 701 2913.3 701 2869.8 701C2826.3 701 2782.7 701 2739.2 701C2695.7 701 2652.3 701 2608.8 701C2565.3 701 2521.7 701 2478.2 701C2434.7 701 2391.3 701 2347.8 701C2304.3 701 2260.7 701 2217.2 701C2173.7 701 2130.3 701 2087 701C2043.7 701 2000.3 701 1956.8 701C1913.3 701 1869.7 701 1826.2 701C1782.7 701 1739.3 701 1695.8 701C1652.3 701 1608.7 701 1565.2 701C1521.7 701 1478.3 701 1434.8 701C1391.3 701 1347.7 701 1304.2 701C1260.7 701 1217.3 701 1173.8 701C1130.3 701 1086.7 701 1043.2 701C999.7 701 956.3 701 913 701C869.7 701 826.3 701 782.8 701C739.3 701 695.7 701 652.2 701C608.7 701 565.3 701 521.8 701C478.3 701 434.7 701 391.2 701C347.7 701 304.3 701 260.8 701C217.3 701 173.7 701 130.2 701C86.7 701 43.3 701 21.7 701L0 701Z" fill="#abcafd"></path><path d="M0 508L21.7 504.2C43.3 500.3 86.7 492.7 130.2 491.7C173.7 490.7 217.3 496.3 260.8 499.2C304.3 502 347.7 502 391.2 496.5C434.7 491 478.3 480 521.8 476.2C565.3 472.3 608.7 475.7 652.2 479.2C695.7 482.7 739.3 486.3 782.8 490C826.3 493.7 869.7 497.3 913 496.3C956.3 495.3 999.7 489.7 1043.2 488.2C1086.7 486.7 1130.3 489.3 1173.8 488.8C1217.3 488.3 1260.7 484.7 1304.2 487.2C1347.7 489.7 1391.3 498.3 1434.8 497.5C1478.3 496.7 1521.7 486.3 1565.2 483.3C1608.7 480.3 1652.3 484.7 1695.8 482.7C1739.3 480.7 1782.7 472.3 1826.2 469C1869.7 465.7 1913.3 467.3 1956.8 468.3C2000.3 469.3 2043.7 469.7 2087 474.8C2130.3 480 2173.7 490 2217.2 489.7C2260.7 489.3 2304.3 478.7 2347.8 477.5C2391.3 476.3 2434.7 484.7 2478.2 490.7C2521.7 496.7 2565.3 500.3 2608.8 496.2C2652.3 492 2695.7 480 2739.2 479.8C2782.7 479.7 2826.3 491.3 2869.8 494.5C2913.3 497.7 2956.7 492.3 2978.3 489.7L3000 487L3000 701L2978.3 701C2956.7 701 2913.3 701 2869.8 701C2826.3 701 2782.7 701 2739.2 701C2695.7 701 2652.3 701 2608.8 701C2565.3 701 2521.7 701 2478.2 701C2434.7 701 2391.3 701 2347.8 701C2304.3 701 2260.7 701 2217.2 701C2173.7 701 2130.3 701 2087 701C2043.7 701 2000.3 701 1956.8 701C1913.3 701 1869.7 701 1826.2 701C1782.7 701 1739.3 701 1695.8 701C1652.3 701 1608.7 701 1565.2 701C1521.7 701 1478.3 701 1434.8 701C1391.3 701 1347.7 701 1304.2 701C1260.7 701 1217.3 701 1173.8 701C1130.3 701 1086.7 701 1043.2 701C999.7 701 956.3 701 913 701C869.7 701 826.3 701 782.8 701C739.3 701 695.7 701 652.2 701C608.7 701 565.3 701 521.8 701C478.3 701 434.7 701 391.2 701C347.7 701 304.3 701 260.8 701C217.3 701 173.7 701 130.2 701C86.7 701 43.3 701 21.7 701L0 701Z" fill="#90bbfc"></path><path d="M0 559L21.7 559.8C43.3 560.7 86.7 562.3 130.2 563.3C173.7 564.3 217.3 564.7 260.8 562.2C304.3 559.7 347.7 554.3 391.2 550.7C434.7 547 478.3 545 521.8 546.2C565.3 547.3 608.7 551.7 652.2 555.5C695.7 559.3 739.3 562.7 782.8 560.7C826.3 558.7 869.7 551.3 913 547C956.3 542.7 999.7 541.3 1043.2 544.2C1086.7 547 1130.3 554 1173.8 554.3C1217.3 554.7 1260.7 548.3 1304.2 548.7C1347.7 549 1391.3 556 1434.8 558C1478.3 560 1521.7 557 1565.2 553.3C1608.7 549.7 1652.3 545.3 1695.8 542.7C1739.3 540 1782.7 539 1826.2 543.2C1869.7 547.3 1913.3 556.7 1956.8 556.2C2000.3 555.7 2043.7 545.3 2087 540C2130.3 534.7 2173.7 534.3 2217.2 535.2C2260.7 536 2304.3 538 2347.8 538.3C2391.3 538.7 2434.7 537.3 2478.2 536C2521.7 534.7 2565.3 533.3 2608.8 537.3C2652.3 541.3 2695.7 550.7 2739.2 554.3C2782.7 558 2826.3 556 2869.8 553.2C2913.3 550.3 2956.7 546.7 2978.3 544.8L3000 543L3000 701L2978.3 701C2956.7 701 2913.3 701 2869.8 701C2826.3 701 2782.7 701 2739.2 701C2695.7 701 2652.3 701 2608.8 701C2565.3 701 2521.7 701 2478.2 701C2434.7 701 2391.3 701 2347.8 701C2304.3 701 2260.7 701 2217.2 701C2173.7 701 2130.3 701 2087 701C2043.7 701 2000.3 701 1956.8 701C1913.3 701 1869.7 701 1826.2 701C1782.7 701 1739.3 701 1695.8 701C1652.3 701 1608.7 701 1565.2 701C1521.7 701 1478.3 701 1434.8 701C1391.3 701 1347.7 701 1304.2 701C1260.7 701 1217.3 701 1173.8 701C1130.3 701 1086.7 701 1043.2 701C999.7 701 956.3 701 913 701C869.7 701 826.3 701 782.8 701C739.3 701 695.7 701 652.2 701C608.7 701 565.3 701 521.8 701C478.3 701 434.7 701 391.2 701C347.7 701 304.3 701 260.8 701C217.3 701 173.7 701 130.2 701C86.7 701 43.3 701 21.7 701L0 701Z" fill="#76a8f4"></path><path d="M0 606L21.7 607.2C43.3 608.3 86.7 610.7 130.2 610.7C173.7 610.7 217.3 608.3 260.8 609.7C304.3 611 347.7 616 391.2 619.5C434.7 623 478.3 625 521.8 622.8C565.3 620.7 608.7 614.3 652.2 612.2C695.7 610 739.3 612 782.8 610.7C826.3 609.3 869.7 604.7 913 602.8C956.3 601 999.7 602 1043.2 606.5C1086.7 611 1130.3 619 1173.8 620.5C1217.3 622 1260.7 617 1304.2 616C1347.7 615 1391.3 618 1434.8 618.5C1478.3 619 1521.7 617 1565.2 614.8C1608.7 612.7 1652.3 610.3 1695.8 609.7C1739.3 609 1782.7 610 1826.2 610.3C1869.7 610.7 1913.3 610.3 1956.8 610.8C2000.3 611.3 2043.7 612.7 2087 614.8C2130.3 617 2173.7 620 2217.2 621.8C2260.7 623.7 2304.3 624.3 2347.8 621.5C2391.3 618.7 2434.7 612.3 2478.2 610.8C2521.7 609.3 2565.3 612.7 2608.8 616.2C2652.3 619.7 2695.7 623.3 2739.2 624.3C2782.7 625.3 2826.3 623.7 2869.8 621.5C2913.3 619.3 2956.7 616.7 2978.3 615.3L3000 614L3000 701L2978.3 701C2956.7 701 2913.3 701 2869.8 701C2826.3 701 2782.7 701 2739.2 701C2695.7 701 2652.3 701 2608.8 701C2565.3 701 2521.7 701 2478.2 701C2434.7 701 2391.3 701 2347.8 701C2304.3 701 2260.7 701 2217.2 701C2173.7 701 2130.3 701 2087 701C2043.7 701 2000.3 701 1956.8 701C1913.3 701 1869.7 701 1826.2 701C1782.7 701 1739.3 701 1695.8 701C1652.3 701 1608.7 701 1565.2 701C1521.7 701 1478.3 701 1434.8 701C1391.3 701 1347.7 701 1304.2 701C1260.7 701 1217.3 701 1173.8 701C1130.3 701 1086.7 701 1043.2 701C999.7 701 956.3 701 913 701C869.7 701 826.3 701 782.8 701C739.3 701 695.7 701 652.2 701C608.7 701 565.3 701 521.8 701C478.3 701 434.7 701 391.2 701C347.7 701 304.3 701 260.8 701C217.3 701 173.7 701 130.2 701C86.7 701 43.3 701 21.7 701L0 701Z" fill="#5d91e6"></path></svg>