<svg id="visual" viewBox="0 0 3000 650" width="3000" height="650" xmlns="http://www.w3.org/2000/svg" xmlns:xlink="http://www.w3.org/1999/xlink" version="1.1"><path d="M0 60L273 86L545 73L818 105L1091 112L1364 79L1636 86L1909 112L2182 105L2455 60L2727 105L3000 112L3000 0L2727 0L2455 0L2182 0L1909 0L1636 0L1364 0L1091 0L818 0L545 0L273 0L0 0Z" fill="#00cc8e"></path><path d="M0 183L273 261L545 190L818 177L1091 242L1364 203L1636 235L1909 255L2182 190L2455 196L2727 164L3000 242L3000 110L2727 103L2455 58L2182 103L1909 110L1636 84L1364 77L1091 110L818 103L545 71L273 84L0 58Z" fill="#00b98a"></path><path d="M0 411L273 437L545 371L818 359L1091 449L1364 333L1636 411L1909 346L2182 449L2455 437L2727 463L3000 476L3000 240L2727 162L2455 194L2182 188L1909 253L1636 233L1364 201L1091 240L818 175L545 188L273 259L0 181Z" fill="#00a784"></path><path d="M0 469L273 515L545 463L818 417L1091 541L1364 449L1636 508L1909 469L2182 547L2455 573L2727 534L3000 534L3000 474L2727 461L2455 435L2182 447L1909 344L1636 409L1364 331L1091 447L818 357L545 369L273 435L0 409Z" fill="#00957c"></path><path d="M0 651L273 651L545 651L818 651L1091 651L1364 651L1636 651L1909 651L2182 651L2455 651L2727 651L3000 651L3000 532L2727 532L2455 571L2182 545L1909 467L1636 506L1364 447L1091 539L818 415L545 461L273 513L0 467Z" fill="#038373"></path></svg>