<svg id="visual" viewBox="0 0 2600 600" width="2600" height="600" xmlns="http://www.w3.org/2000/svg" xmlns:xlink="http://www.w3.org/1999/xlink" version="1.1"><path d="M0 37L54.2 39C108.3 41 216.7 45 325 60C433.3 75 541.7 101 650 95C758.3 89 866.7 51 975 35C1083.3 19 1191.7 25 1300 25C1408.3 25 1516.7 19 1625 21C1733.3 23 1841.7 33 1950 35C2058.3 37 2166.7 31 2275 39C2383.3 47 2491.7 69 2545.8 80L2600 91L2600 0L2545.8 0C2491.7 0 2383.3 0 2275 0C2166.7 0 2058.3 0 1950 0C1841.7 0 1733.3 0 1625 0C1516.7 0 1408.3 0 1300 0C1191.7 0 1083.3 0 975 0C866.7 0 758.3 0 650 0C541.7 0 433.3 0 325 0C216.7 0 108.3 0 54.2 0L0 0Z" fill="#0066ff"></path><path d="M0 475L54.2 425C108.3 375 216.7 275 325 257C433.3 239 541.7 303 650 282C758.3 261 866.7 155 975 102C1083.3 49 1191.7 49 1300 44C1408.3 39 1516.7 29 1625 46C1733.3 63 1841.7 107 1950 126C2058.3 145 2166.7 139 2275 132C2383.3 125 2491.7 117 2545.8 113L2600 109L2600 89L2545.8 78C2491.7 67 2383.3 45 2275 37C2166.7 29 2058.3 35 1950 33C1841.7 31 1733.3 21 1625 19C1516.7 17 1408.3 23 1300 23C1191.7 23 1083.3 17 975 33C866.7 49 758.3 87 650 93C541.7 99 433.3 73 325 58C216.7 43 108.3 39 54.2 37L0 35Z" fill="#0059de"></path><path d="M0 487L54.2 465C108.3 443 216.7 399 325 383C433.3 367 541.7 379 650 393C758.3 407 866.7 423 975 399C1083.3 375 1191.7 311 1300 324C1408.3 337 1516.7 427 1625 458C1733.3 489 1841.7 461 1950 453C2058.3 445 2166.7 457 2275 447C2383.3 437 2491.7 405 2545.8 389L2600 373L2600 107L2545.8 111C2491.7 115 2383.3 123 2275 130C2166.7 137 2058.3 143 1950 124C1841.7 105 1733.3 61 1625 44C1516.7 27 1408.3 37 1300 42C1191.7 47 1083.3 47 975 100C866.7 153 758.3 259 650 280C541.7 301 433.3 237 325 255C216.7 273 108.3 373 54.2 423L0 473Z" fill="#004cbe"></path><path d="M0 541L54.2 518C108.3 495 216.7 449 325 429C433.3 409 541.7 415 650 433C758.3 451 866.7 481 975 462C1083.3 443 1191.7 375 1300 387C1408.3 399 1516.7 491 1625 518C1733.3 545 1841.7 507 1950 490C2058.3 473 2166.7 477 2275 467C2383.3 457 2491.7 433 2545.8 421L2600 409L2600 371L2545.8 387C2491.7 403 2383.3 435 2275 445C2166.7 455 2058.3 443 1950 451C1841.7 459 1733.3 487 1625 456C1516.7 425 1408.3 335 1300 322C1191.7 309 1083.3 373 975 397C866.7 421 758.3 405 650 391C541.7 377 433.3 365 325 381C216.7 397 108.3 441 54.2 463L0 485Z" fill="#00409e"></path><path d="M0 571L54.2 556C108.3 541 216.7 511 325 494C433.3 477 541.7 473 650 486C758.3 499 866.7 529 975 530C1083.3 531 1191.7 503 1300 510C1408.3 517 1516.7 559 1625 575C1733.3 591 1841.7 581 1950 565C2058.3 549 2166.7 527 2275 513C2383.3 499 2491.7 493 2545.8 490L2600 487L2600 407L2545.8 419C2491.7 431 2383.3 455 2275 465C2166.7 475 2058.3 471 1950 488C1841.7 505 1733.3 543 1625 516C1516.7 489 1408.3 397 1300 385C1191.7 373 1083.3 441 975 460C866.7 479 758.3 449 650 431C541.7 413 433.3 407 325 427C216.7 447 108.3 493 54.2 516L0 539Z" fill="#003380"></path><path d="M0 601L54.2 601C108.3 601 216.7 601 325 601C433.3 601 541.7 601 650 601C758.3 601 866.7 601 975 601C1083.3 601 1191.7 601 1300 601C1408.3 601 1516.7 601 1625 601C1733.3 601 1841.7 601 1950 601C2058.3 601 2166.7 601 2275 601C2383.3 601 2491.7 601 2545.8 601L2600 601L2600 485L2545.8 488C2491.7 491 2383.3 497 2275 511C2166.7 525 2058.3 547 1950 563C1841.7 579 1733.3 589 1625 573C1516.7 557 1408.3 515 1300 508C1191.7 501 1083.3 529 975 528C866.7 527 758.3 497 650 484C541.7 471 433.3 475 325 492C216.7 509 108.3 539 54.2 554L0 569Z" fill="#002762"></path></svg>