<?xml version="1.0" encoding="UTF-8"?>
<!DOCTYPE svg PUBLIC "-//W3C//DTD SVG 1.1//EN" "http://www.w3.org/Graphics/SVG/1.1/DTD/svg11.dtd">
<!-- Creator: CorelDRAW -->
<svg xmlns="http://www.w3.org/2000/svg" xml:space="preserve" width="6.82666in" height="6.82666in" style="shape-rendering:geometricPrecision; text-rendering:geometricPrecision; image-rendering:optimizeQuality; fill-rule:evenodd; clip-rule:evenodd"
viewBox="0 0 6.82666 6.82666"
 xmlns:xlink="http://www.w3.org/1999/xlink">
 <defs>
  <style type="text/css">
   <![CDATA[
    .fil2 {fill:none}
    .fil6 {fill:#33691E}
    .fil8 {fill:#4B772D}
    .fil7 {fill:#558B2F}
    .fil1 {fill:#FB8C00}
    .fil0 {fill:#FFA726}
    .fil11 {fill:#37474F;fill-rule:nonzero}
    .fil9 {fill:#424242;fill-rule:nonzero}
    .fil12 {fill:#455A64;fill-rule:nonzero}
    .fil3 {fill:#9CCC65;fill-rule:nonzero}
    .fil4 {fill:#AED581;fill-rule:nonzero}
    .fil10 {fill:#BDBDBD;fill-rule:nonzero}
    .fil5 {fill:#F15C62;fill-rule:nonzero}
   ]]>
  </style>
   <clipPath id="id0">
    <path d="M3.41333 -3.93701e-006c1.88513,0 3.41333,1.5282 3.41333,3.41333 0,1.88513 -1.5282,3.41333 -3.41333,3.41333 -1.88513,0 -3.41333,-1.5282 -3.41333,-3.41333 0,-1.88513 1.5282,-3.41333 3.41333,-3.41333z"/>
   </clipPath>
 </defs>
 <g id="Layer_x0020_1">
  <metadata id="CorelCorpID_0Corel-Layer"/>
  <path class="fil0" d="M3.41333 -3.93701e-006c1.88513,0 3.41333,1.5282 3.41333,3.41333 0,1.88513 -1.5282,3.41333 -3.41333,3.41333 -1.88513,0 -3.41333,-1.5282 -3.41333,-3.41333 0,-1.88513 1.5282,-3.41333 3.41333,-3.41333z"/>
  <g style="clip-path:url(#id0)">
   <g id="_457172240">
    <g>
     <path id="_4528382241" class="fil1" d="M7.1965 5.74405l0 0zm-3.78627 -3.78627l0 0z"/>
     <path id="_452838368" class="fil1" d="M7.2027 5.74405l0 0zm-3.78627 -3.78627l0 0z"/>
     <polygon id="_452840000" class="fil1" points="3.43022,1.57407 7.21648,5.36035 7.21648,5.59472 3.43022,1.80844 "/>
     <polygon id="_452840384" class="fil1" points="3.43022,1.80844 7.21648,5.59472 7.21593,5.60024 7.21433,5.60538 7.2118,5.61004 7.20846,5.61409 7.2044,5.61744 7.19974,5.61997 7.1946,5.62157 7.18907,5.62213 3.40281,1.83585 3.40833,1.8353 3.41348,1.8337 3.41813,1.83117 3.42219,1.82782 3.42554,1.82377 3.42806,1.81911 3.42966,1.81397 "/>
     <polygon id="_452840408" class="fil1" points="2.72017,1.79119 6.50643,5.57746 6.50969,5.58192 2.72343,1.79565 "/>
     <polygon id="_452840720" class="fil1" points="2.38509,2.49804 6.17136,6.28431 6.17497,6.28829 6.17769,6.29283 6.17947,6.29776 6.18029,6.30295 6.1801,6.30823 6.17886,6.31346 6.17653,6.3185 2.39026,2.53222 2.39259,2.52719 2.39383,2.52196 2.39402,2.51668 2.3932,2.51149 2.39142,2.50656 2.3887,2.50202 "/>
     <polygon id="_452840984" class="fil1" points="2.35279,2.54186 6.13906,6.32813 5.93725,6.20897 2.15098,2.4227 "/>
     <polygon id="_452840744" class="fil1" points="3.93033,4.25358 7.71659,8.03985 7.71057,8.09931 3.9243,4.31304 "/>
     <polygon id="_452840480" class="fil1" points="3.967,4.31304 7.75327,8.09931 7.75327,8.23561 3.967,4.44934 "/>
     <polygon id="_452840768" class="fil1" points="3.967,4.44934 7.75327,8.23561 7.71443,8.23561 3.92816,4.44934 "/>
     <polygon id="_452840696" class="fil1" points="3.92816,4.44934 7.71443,8.23561 7.71443,8.30483 3.92816,4.51856 "/>
     <polygon id="_452841104" class="fil1" points="3.967,4.51856 7.75327,8.30483 7.75327,8.44113 3.967,4.65486 "/>
     <polygon id="_452841128" class="fil1" points="3.967,4.65486 7.75327,8.44113 7.71443,8.44113 3.92816,4.65486 "/>
     <polygon id="_452840960" class="fil1" points="3.92816,4.65486 7.71443,8.44113 7.71443,8.51035 3.92816,4.72407 "/>
     <polygon id="_452841704" class="fil1" points="3.967,4.72407 7.75327,8.51035 7.75327,8.64665 3.967,4.86037 "/>
     <polygon id="_452841320" class="fil1" points="3.967,4.86037 7.75327,8.64665 7.71443,8.64665 3.92816,4.86037 "/>
     <polygon id="_452841176" class="fil1" points="3.92816,4.86037 7.71443,8.64665 7.71443,8.72014 3.92816,4.93387 "/>
     <polygon id="_452841872" class="fil1" points="3.92816,4.93387 7.71443,8.72014 7.68235,8.72014 3.89609,4.93387 "/>
     <polygon id="_452841536" class="fil1" points="3.89609,4.93387 7.68235,8.72014 7.68113,8.78011 3.89486,4.99383 "/>
     <polygon id="_452841440" class="fil1" points="3.89511,4.99383 7.68137,8.78011 7.68115,8.78978 7.68048,8.79895 7.67939,8.80763 7.67788,8.81582 7.67598,8.82355 7.67369,8.83082 7.67104,8.83765 7.66804,8.84406 7.66469,8.85005 7.66102,8.85564 7.65705,8.86085 7.65278,8.86567 7.64824,8.87015 7.64343,8.87427 7.63837,8.87806 7.63307,8.88152 7.62756,8.88469 7.62184,8.88755 7.61593,8.89014 7.60985,8.89246 7.60361,8.89452 7.59722,8.89635 7.5907,8.89794 7.58407,8.89933 7.57733,8.90051 7.57051,8.90151 7.56362,8.90233 7.55667,8.90299 7.54968,8.9035 7.54266,8.90389 7.53563,8.90414 7.52861,8.9043 3.74234,5.11802 3.74937,5.11787 3.75639,5.11761 3.76341,5.11723 3.7704,5.11672 3.77735,5.11606 3.78424,5.11524 3.79106,5.11424 3.7978,5.11306 3.80443,5.11167 3.81095,5.11007 3.81734,5.10825 3.82358,5.10619 3.82967,5.10387 3.83557,5.10128 3.84129,5.09841 3.8468,5.09525 3.8521,5.09178 3.85716,5.088 3.86197,5.08387 3.86652,5.0794 3.87078,5.07457 3.87476,5.06937 3.87842,5.06378 3.88177,5.05779 3.88477,5.05138 3.88743,5.04455 3.88971,5.03728 3.89161,5.02955 3.89312,5.02135 3.89421,5.01268 3.89488,5.00351 "/>
     <polygon id="_452841608" class="fil1" points="3.74234,5.11802 7.52861,8.9043 7.52026,8.90435 3.73399,5.11808 "/>
     <polygon id="_452841248" class="fil1" points="3.73399,5.11808 7.52026,8.90435 7.51625,8.90425 3.72998,5.11798 "/>
     <polygon id="_452841896" class="fil1" points="3.72998,5.11798 7.51625,8.90425 7.51306,8.90417 3.72679,5.11789 "/>
     <polygon id="_452841416" class="fil1" points="3.72679,5.11789 7.51306,8.90417 7.51301,8.90424 3.72674,5.11797 "/>
     <polygon id="_452841992" class="fil1" points="3.72674,5.11797 7.51301,8.90424 7.51293,8.90435 3.72667,5.11808 "/>
     <polygon id="_452842208" class="fil1" points="2.89835,4.44934 6.68462,8.23561 6.64578,8.23561 2.85951,4.44934 "/>
     <polygon id="_452842136" class="fil1" points="3.62317,5.27998 7.40944,9.06626 7.36663,9.06627 3.58037,5.28 "/>
     <polygon id="_452842160" class="fil1" points="2.93063,4.93387 6.7169,8.72014 6.68462,8.72014 2.89835,4.93387 "/>
     <polygon id="_452842232" class="fil1" points="3.09252,5.11808 6.87879,8.90435 6.87563,8.90435 6.87246,8.90432 6.8693,8.90428 6.86612,8.90421 6.86295,8.90413 6.85978,8.90402 6.8566,8.90389 6.85343,8.90374 3.06716,5.11747 3.07033,5.11762 3.07351,5.11775 3.07668,5.11786 3.07985,5.11794 3.08303,5.118 3.0862,5.11805 3.08936,5.11807 "/>
     <polygon id="_452842520" class="fil1" points="3.09972,5.11789 6.88599,8.90416 6.87879,8.90435 3.09252,5.11808 "/>
     <polygon id="_452842352" class="fil1" points="3.06716,5.11747 6.85343,8.90374 6.84695,8.90334 6.8405,8.90283 6.83409,8.90219 6.82773,8.9014 6.82143,8.90046 6.8152,8.89937 6.80906,8.89811 6.80302,8.89666 6.79709,8.89502 6.79128,8.89318 6.7856,8.89113 6.78006,8.88885 6.77469,8.88633 6.76947,8.88358 6.76444,8.88056 6.7596,8.87729 6.75496,8.87373 6.75054,8.86989 2.96427,5.08362 2.96869,5.08746 2.97333,5.09102 2.97817,5.09429 2.9832,5.09731 2.98842,5.10006 2.9938,5.10257 2.99933,5.10485 3.00501,5.10691 3.01082,5.10875 3.01675,5.11039 3.0228,5.11183 3.02893,5.1131 3.03516,5.11419 3.04146,5.11513 3.04782,5.11591 3.05423,5.11656 3.06069,5.11707 "/>
     <polygon id="_452842544" class="fil1" points="3.24615,5.28 7.03242,9.06627 6.99612,9.06627 3.20985,5.28 "/>
     <polygon id="_452842424" class="fil1" points="2.89835,4.86037 6.68462,8.64665 6.64578,8.64665 2.85951,4.86037 "/>
     <polygon id="_452842592" class="fil1" points="2.89835,4.65486 6.68462,8.44113 6.64578,8.44113 2.85951,4.65486 "/>
     <polygon id="_452843024" class="fil1" points="3.58037,5.28 7.36663,9.06627 7.03242,9.06627 3.24615,5.28 "/>
     <polygon id="_452843096" class="fil1" points="3.72667,5.11808 7.51293,8.90435 7.40944,9.06626 3.62317,5.27998 "/>
     <polygon id="_452843288" class="fil1" points="4.14868,1.79313 7.93494,5.57941 7.93767,5.58393 7.93947,5.58885 7.9403,5.59402 7.94013,5.59929 7.93891,5.60452 7.93661,5.60954 4.15034,1.82327 4.15264,1.81824 4.15386,1.81302 4.15404,1.80775 4.1532,1.80257 4.15141,1.79765 "/>
     <polygon id="_452842976" class="fil1" points="4.15034,1.82327 7.93661,5.60954 7.818,5.81169 4.03174,2.02542 "/>
     <polygon id="_452843240" class="fil1" points="4.03174,2.02542 7.818,5.81169 7.81474,5.81615 7.81078,5.81977 7.80626,5.8225 7.80134,5.8243 7.79617,5.82513 7.79089,5.82496 7.78567,5.82374 7.78064,5.82143 3.99437,2.03516 3.9994,2.03747 4.00462,2.03869 4.0099,2.03886 4.01507,2.03803 4.01999,2.03623 4.02451,2.0335 4.02847,2.02988 "/>
     <polygon id="_452842784" class="fil1" points="3.99437,2.03516 7.78064,5.82143 7.77617,5.81817 7.77256,5.8142 3.98629,2.02793 3.98991,2.0319 "/>
     <polygon id="_452843072" class="fil1" points="4.68531,2.38522 8.47158,6.1715 8.47391,6.17652 8.47515,6.18176 8.47534,6.18704 8.47452,6.19223 8.47274,6.19716 8.47002,6.2017 8.46641,6.20569 8.46194,6.20897 4.67567,2.4227 4.68014,2.41941 4.68375,2.41543 4.68647,2.41089 4.68826,2.40596 4.68907,2.40077 4.68888,2.39548 4.68764,2.39025 "/>
     <polygon id="_452842832" class="fil1" points="4.67567,2.4227 8.46194,6.20897 8.26013,6.32813 4.47386,2.54186 "/>
     <polygon id="_452842856" class="fil1" points="4.47386,2.54186 8.26013,6.32813 8.2551,6.33046 8.24987,6.3317 8.24458,6.33189 8.2394,6.33107 8.23446,6.32929 8.22993,6.32657 8.22594,6.32296 4.43967,2.53669 4.44366,2.5403 4.44819,2.54302 4.45313,2.5448 4.45831,2.54562 4.4636,2.54543 4.46883,2.54419 "/>
     <polygon id="_452843456" class="fil1" points="4.68203,2.38076 8.4683,6.16703 8.47158,6.1715 4.68531,2.38522 "/>
     <polygon id="_452842880" class="fil1" points="2.72343,1.79565 6.50969,5.58192 6.6283,5.78407 2.84203,1.9978 "/>
     <polygon id="_452843576" class="fil1" points="2.84203,1.9978 6.6283,5.78407 6.6306,5.78909 6.63182,5.79432 6.632,5.79959 6.63116,5.80477 6.62936,5.80969 6.62663,5.8142 6.62302,5.81817 6.61855,5.82143 2.83228,2.03516 2.83675,2.0319 2.84037,2.02793 2.84309,2.02342 2.84489,2.0185 2.84573,2.01332 2.84555,2.00805 2.84433,2.00282 "/>
     <polygon id="_452843840" class="fil1" points="2.83228,2.03516 6.61855,5.82143 6.61352,5.82374 6.6083,5.82496 6.60303,5.82513 6.59785,5.8243 6.59293,5.8225 6.58841,5.81977 6.58445,5.81615 2.79818,2.02988 2.80215,2.0335 2.80667,2.03623 2.81159,2.03803 2.81676,2.03886 2.82203,2.03869 2.82726,2.03747 "/>
     <polygon id="_452843528" class="fil1" points="4.30052,3.32432 8.08678,7.11059 8.08225,7.12094 8.07764,7.13123 8.07294,7.14147 8.06817,7.15166 8.06331,7.1618 8.05839,7.17189 8.05339,7.18193 8.04833,7.19192 8.0432,7.20187 8.038,7.21176 8.03275,7.22162 8.02744,7.23143 8.02208,7.24119 8.01666,7.25092 8.01119,7.2606 8.00568,7.27024 8.00012,7.27984 7.99452,7.28941 7.98888,7.29893 7.9832,7.30842 7.9775,7.31787 7.97176,7.32728 7.96599,7.33667 7.9602,7.34602 7.95438,7.35533 7.94854,7.36462 7.94269,7.37387 7.93681,7.3831 7.93093,7.3923 7.92504,7.40146 7.91914,7.41061 7.91323,7.41972 4.12696,3.63345 4.13287,3.62433 4.13877,3.61519 4.14466,3.60602 4.15055,3.59683 4.15642,3.5876 4.16227,3.57835 4.16811,3.56906 4.17393,3.55974 4.17972,3.5504 4.18549,3.54101 4.19123,3.5316 4.19694,3.52215 4.20261,3.51266 4.20825,3.50313 4.21385,3.49357 4.21941,3.48397 4.22493,3.47433 4.23039,3.46465 4.23581,3.45492 4.24117,3.44516 4.24648,3.43535 4.25174,3.42549 4.25693,3.41559 4.26206,3.40565 4.26712,3.39566 4.27212,3.38562 4.27704,3.37553 4.2819,3.36539 4.28667,3.3552 4.29137,3.34496 4.29598,3.33467 "/>
     <polygon id="_452843624" class="fil1" points="3.42219,1.55469 7.20846,5.34096 7.2118,5.34502 7.21433,5.34968 7.21593,5.35482 7.21648,5.36035 3.43022,1.57407 3.42966,1.56855 3.42806,1.56341 3.42554,1.55875 "/>
     <polygon id="_452844128" class="fil1" points="3.40281,1.83585 7.18907,5.62213 7.18355,5.62157 7.17841,5.61997 7.17375,5.61744 7.16969,5.61409 3.38343,1.82782 3.38748,1.83117 3.39214,1.8337 3.39728,1.8353 "/>
     <polygon id="_452843504" class="fil1" points="4.11547,2.27025 7.90174,6.05652 7.91753,6.07408 7.93291,6.09202 7.94787,6.11033 7.96242,6.12902 7.97654,6.14806 7.99022,6.16745 8.00346,6.18719 8.01625,6.20726 8.02858,6.22767 8.04044,6.24839 8.05183,6.26942 8.06274,6.29075 8.07316,6.31238 8.08308,6.3343 8.0925,6.35649 8.10141,6.37896 8.1098,6.40169 8.11765,6.42467 8.12498,6.4479 8.13176,6.47137 8.13799,6.49506 8.14367,6.51898 8.14878,6.54312 8.15331,6.56746 8.15727,6.592 8.16064,6.61673 8.16341,6.64164 8.16557,6.66673 8.16713,6.69198 8.16807,6.71739 8.16839,6.74294 4.38212,2.95667 4.38181,2.93111 4.38087,2.9057 4.37931,2.88046 4.37714,2.85537 4.37437,2.83046 4.371,2.80573 4.36704,2.78119 4.36251,2.75685 4.3574,2.73271 4.35172,2.70879 4.34549,2.68509 4.33871,2.66163 4.33139,2.6384 4.32353,2.61541 4.31514,2.59269 4.30623,2.57022 4.29681,2.54802 4.28689,2.52611 4.27647,2.50448 4.26557,2.48315 4.25418,2.46211 4.24231,2.44139 4.22998,2.42099 4.21719,2.40092 4.20396,2.38118 4.19027,2.36179 4.17615,2.34274 4.16161,2.32406 4.14664,2.30575 4.13126,2.28781 "/>
     <polygon id="_452844080" class="fil1" points="4.38239,2.95667 8.16866,6.74294 8.16856,6.75533 8.16828,6.76765 8.16781,6.77991 8.16716,6.79211 8.16633,6.80424 8.16532,6.81631 8.16414,6.82833 8.16279,6.84028 8.16127,6.85217 8.15958,6.864 8.15774,6.87577 8.15573,6.88749 8.15357,6.89915 8.15126,6.91074 8.14879,6.92229 8.14618,6.93378 8.14342,6.94521 8.14052,6.95659 8.13749,6.96792 8.13432,6.9792 8.13102,6.99042 8.12758,7.00159 8.12402,7.01271 8.12034,7.02378 8.11654,7.0348 8.11262,7.04576 8.10858,7.05669 8.10443,7.06756 8.10018,7.07839 8.09581,7.08917 8.09135,7.0999 8.08678,7.11059 4.30052,3.32432 4.30508,3.31363 4.30955,3.3029 4.31391,3.29211 4.31817,3.28129 4.32231,3.27041 4.32635,3.25949 4.33027,3.24852 4.33407,3.2375 4.33776,3.22644 4.34131,3.21531 4.34475,3.20415 4.34805,3.19293 4.35122,3.18165 4.35426,3.17032 4.35715,3.15894 4.35991,3.14751 4.36252,3.13602 4.36499,3.12447 4.3673,3.11287 4.36946,3.10122 4.37147,3.0895 4.37331,3.07773 4.375,3.06589 4.37652,3.054 4.37787,3.04206 4.37905,3.03004 4.38006,3.01797 4.38089,3.00584 4.38154,2.99364 4.38201,2.98138 4.3823,2.96906 "/>
     <polygon id="_452843888" class="fil1" points="2.39026,2.53222 6.17653,6.3185 6.17325,6.32296 6.16926,6.32657 6.16473,6.32929 6.15979,6.33107 6.15461,6.33189 6.14932,6.3317 6.14409,6.33046 6.13906,6.32813 2.35279,2.54186 2.35782,2.54419 2.36306,2.54543 2.36834,2.54562 2.37352,2.5448 2.37846,2.54302 2.383,2.5403 2.38698,2.53669 "/>
     <polygon id="_452843984" class="fil1" points="4.12696,3.63345 7.91323,7.41972 7.9017,7.43777 7.89076,7.45546 7.88039,7.47282 7.87057,7.48986 7.86129,7.50661 7.85252,7.52309 7.84423,7.53932 7.83641,7.55533 7.82905,7.57115 7.8221,7.58678 7.81557,7.60227 7.80941,7.61762 7.80362,7.63287 7.79817,7.64803 7.79304,7.66313 7.78822,7.67819 7.78367,7.69323 7.77937,7.70828 7.77532,7.72337 7.77148,7.7385 7.76783,7.75372 7.76437,7.76903 7.76105,7.78446 7.75786,7.80004 7.75478,7.81579 7.7518,7.83173 7.74887,7.84789 7.746,7.86428 7.74316,7.88093 7.74031,7.89787 7.73746,7.91511 7.73457,7.93269 3.9483,4.14641 3.95119,4.12884 3.95405,4.1116 3.95689,4.09466 3.95974,4.07801 3.96261,4.06162 3.96553,4.04546 3.96851,4.02952 3.97159,4.01377 3.97478,3.99819 3.9781,3.98276 3.98157,3.96744 3.98521,3.95223 3.98905,3.93709 3.99311,3.92201 3.9974,3.90696 4.00195,3.89191 4.00678,3.87685 4.01191,3.86176 4.01735,3.84659 4.02315,3.83135 4.0293,3.816 4.03583,3.80051 4.04278,3.78488 4.05015,3.76906 4.05796,3.75305 4.06625,3.73681 4.07502,3.72033 4.0843,3.70359 4.09412,3.68655 4.10449,3.66919 4.11543,3.6515 "/>
     <polygon id="_452843648" class="fil1" points="2.15098,2.4227 5.93725,6.20897 5.93279,6.20569 2.14652,2.41941 "/>
     <polygon id="_452844728" class="fil1" points="3.9483,4.14641 7.73457,7.93269 7.73337,7.94 7.73216,7.94734 7.73095,7.95468 7.72974,7.962 7.72854,7.96927 7.72735,7.97648 7.72617,7.98359 7.725,7.99059 7.72385,7.99746 7.72273,8.00418 7.72163,8.0107 7.72055,8.01704 7.71951,8.02313 7.7185,8.02899 7.71752,8.03457 7.71659,8.03985 3.93033,4.25358 3.93126,4.2483 3.93223,4.24272 3.93324,4.23686 3.93428,4.23076 3.93536,4.22443 3.93646,4.21791 3.93759,4.21119 3.93874,4.20432 3.9399,4.19732 3.94108,4.1902 3.94228,4.183 3.94348,4.17572 3.94469,4.16841 3.94589,4.16107 3.9471,4.15373 "/>
    </g>
    <path id="_457172096" class="fil1" d="M3.41023 1.95778l0 0zm0.00619685 0l0 0zm0.682862 0.295307c0.174713,0.180965 0.282858,0.430193 0.282827,0.703587l0.000271654 0c0,0.132472 -0.0326535,0.25387 -0.081874,0.367646 -0.047878,0.110657 -0.110551,0.212031 -0.173551,0.30913 -0.126291,0.194563 -0.147531,0.323689 -0.178665,0.512965 -0.00638976,0.0389055 -0.013122,0.0797992 -0.0179724,0.107169l-0.00602362 0.0594567 0.00385433 0 0.0388465 0 0 0.136299 -0.0388465 0 0 0.0692205 0.0388465 0 0 0.136299 -0.0388465 0 0 0.0692165 0.0388465 0 0 0.136299 -0.0388465 0 0 0.0734921 -0.0320709 0 -0.00122441 0.0599685 0.000244094 0c0,0.105957 -0.0778858,0.123094 -0.152768,0.124189l-0.00834646 5.90551e-005 -0.00400787 -0.000106299 -0.00319685 -8.26772e-005 -4.33071e-005 7.48031e-005 -7.87402e-005 0.000114173 -0.103496 0.161902 -0.0428031 1.5748e-005 -0.334217 0 -0.0362953 0 -0.0207559 -0.0305591 -0.089248 -0.131358 -0.000129921 -0.00019685 -0.00719685 0.00019685c-0.00841732,0 -0.0169094,-0.000173228 -0.0253622,-0.000614173 -0.0692047,-0.00364173 -0.135756,-0.025689 -0.135756,-0.123634l0.000271654 0c0,-0.00575591 -0.000413386,-0.0289764 -0.000964567,-0.0560276 -2.75591e-005,-0.00130315 -5.51181e-005,-0.00261811 -8.26772e-005,-0.00394094l-0.0322756 0 0 -0.0734921 -0.0388465 0 0 -0.136299 0.0388465 0 0 -0.0692165 -0.0388465 0 0 -0.136299 0.0388465 0 0 -0.0692205 -0.0388465 0 0 -0.136299 0.0388465 0 0.00676378 0 -0.00878346 -0.0594567c-0.00485039,-0.0273701 -0.0115827,-0.0682638 -0.0179724,-0.107169 -0.0311339,-0.189276 -0.052374,-0.318402 -0.178665,-0.512965 -0.063,-0.0970984 -0.125673,-0.198472 -0.173551,-0.30913 -0.0492205,-0.113776 -0.081874,-0.235173 -0.081874,-0.367646l0.000271654 0c-3.14961e-005,-0.273394 0.108114,-0.522622 0.282827,-0.703587 0.174724,-0.180976 0.41611,-0.293992 0.682862,-0.295315l0.00096063 -1.5748e-005 0.000267717 0 0.00105906 -1.5748e-005 0.000811024 -7.87402e-006 0.000811024 7.87402e-006 0.00105906 1.5748e-005 0.000267717 0 0.000358268 3.93701e-006 0.000602362 1.9685e-005c0.266752,0.00131496 0.508138,0.114331 0.682862,0.295307zm0.0413031 -0.467177c0.0130079,0.00762598 0.0173701,0.0243583 0.00974409,0.0373622l-0.118602 0.202146c-0.00762992,0.0130079 -0.0243583,0.017374 -0.0373661,0.00974409 -0.0130079,-0.00762598 -0.017374,-0.0243583 -0.00974409,-0.0373661l0.118602 -0.202146c0.00762598,-0.0130079 0.0243583,-0.0173701 0.0373661,-0.00974016zm0.54472 0.599315c0.00768504,0.0130079 0.00337008,0.0297835 -0.00964173,0.0374724l-0.201811 0.119165c-0.0130079,0.00768504 -0.0297874,0.00337008 -0.0374724,-0.0096378 -0.00768898,-0.0130079 -0.00337008,-0.0297874 0.0096378,-0.0374724l0.201815 -0.119165c0.0130079,-0.00768504 0.0297835,-0.00337008 0.0374724,0.0096378zm-1.99925 -0.599315c0.0130079,-0.00762992 0.0297362,-0.00326772 0.0373622,0.00974016l0.118602 0.202146c0.00762992,0.0130079 0.00326378,0.0297402 -0.00974409,0.0373661 -0.0130039,0.00762992 -0.0297362,0.00326378 -0.0373622,-0.00974409l-0.118602 -0.202146c-0.00762992,-0.0130039 -0.00326378,-0.0297362 0.00974409,-0.0373622zm0.716744 -0.239248c0.0151378,0 0.0274094,0.0122756 0.0274094,0.0274134l0 0.23437c0,0.0151339 -0.0122717,0.0274094 -0.0274094,0.0274094 -0.0151378,0 -0.0274094,-0.0122756 -0.0274094,-0.0274094l0 -0.23437c0,-0.0151378 0.0122717,-0.0274134 0.0274094,-0.0274134zm-1.26146 0.838563c0.00768504,-0.0130079 0.0244646,-0.0173228 0.0374724,-0.0096378l0.201807 0.119165c0.0130079,0.00768504 0.0173228,0.0244646 0.0096378,0.0374724 -0.00768504,0.0130079 -0.0244646,0.0173228 -0.0374724,0.0096378l-0.201807 -0.119165c-0.0130079,-0.00768898 -0.0173228,-0.0244646 -0.0096378,-0.0374724z"/>
   </g>
  </g>
  <path class="fil2" d="M3.41333 -3.93701e-006c1.88513,0 3.41333,1.5282 3.41333,3.41333 0,1.88513 -1.5282,3.41333 -3.41333,3.41333 -1.88513,0 -3.41333,-1.5282 -3.41333,-3.41333 0,-1.88513 1.5282,-3.41333 3.41333,-3.41333z"/>
  <path class="fil3" d="M3.41333 4.3224l-0.448858 0 -0.0579724 0 -0.0101654 -0.068815c-0.00485039,-0.0273701 -0.0115787,-0.0682677 -0.0179764,-0.107169 -0.0311339,-0.189276 -0.0523701,-0.318402 -0.178661,-0.512965 -0.063,-0.0970984 -0.125677,-0.198472 -0.173551,-0.30913 -0.0492205,-0.113772 -0.081874,-0.235177 -0.081874,-0.36765l0.000271654 0c-3.14961e-005,-0.27339 0.108114,-0.522618 0.282827,-0.703583 0.174724,-0.18098 0.41611,-0.293992 0.682858,-0.295303l0 -1.1811e-005 0.000964567 -1.5748e-005 0.000267717 0 0.00105906 -1.5748e-005 0.000811024 -7.87402e-006 0 2.36467z"/>
  <path class="fil4" d="M3.9483 4.14641c-0.00639764,0.0389016 -0.013126,0.0797992 -0.0179764,0.107169l-0.00697244 0.0688346 -0.0611654 -1.9685e-005 -0.448366 0 -0.000492126 0 0 -2.36467 0.000811024 7.87402e-006 0.00105906 1.5748e-005 0.000267717 0 0.000358268 7.87402e-006 0.000606299 7.87402e-006 0 1.1811e-005c0.266748,0.00131102 0.508134,0.114323 0.682858,0.295303 0.174713,0.180965 0.282858,0.430193 0.282827,0.703583l0.000271654 0c0,0.132472 -0.0326535,0.253878 -0.081874,0.36765 -0.047874,0.110657 -0.110551,0.212031 -0.173551,0.30913 -0.126291,0.194563 -0.147528,0.323689 -0.178661,0.512965z"/>
  <polygon class="fil5" points="3.41427,2.09567 3.41395,2.09567 3.41427,2.09567 "/>
  <path class="fil5" d="M3.43022 1.57407c0,-0.0151378 -0.0122717,-0.0274094 -0.0274094,-0.0274094 -0.0151378,0 -0.0274094,0.0122717 -0.0274094,0.0274094l0 0.23437c0,0.0151378 0.0122717,0.0274134 0.0274094,0.0274134 0.0151378,0 0.0274094,-0.0122756 0.0274094,-0.0274134l0 -0.23437z"/>
  <path class="fil5" d="M4.15034 1.82327c0.00762598,-0.0130079 0.00326378,-0.0297362 -0.00974409,-0.0373661 -0.0130079,-0.00762598 -0.0297402,-0.00325984 -0.0373661,0.00974409l-0.118602 0.202146c-0.00762992,0.0130079 -0.00326378,0.0297402 0.00974409,0.0373661 0.0130079,0.00762598 0.0297362,0.00326378 0.0373661,-0.00974409l0.118602 -0.202146z"/>
  <path class="fil5" d="M4.67567 2.4227c0.0130079,-0.00768504 0.0173228,-0.0244646 0.0096378,-0.0374724 -0.00768504,-0.0130079 -0.0244646,-0.0173228 -0.0374724,-0.0096378l-0.201815 0.119165c-0.0130079,0.00768504 -0.0173228,0.0244646 -0.0096378,0.0374724 0.00768898,0.0130079 0.0244646,0.0173228 0.0374724,0.0096378l0.201815 -0.119165z"/>
  <path class="fil5" d="M2.72343 1.79565c-0.00762992,-0.0130039 -0.0243583,-0.0173701 -0.0373661,-0.00974409 -0.0130079,0.00762992 -0.017374,0.0243583 -0.00974409,0.0373661l0.118602 0.202146c0.00762598,0.0130079 0.0243583,0.0173701 0.0373661,0.00974409 0.0130039,-0.00762598 0.0173701,-0.0243583 0.00974409,-0.0373661l-0.118602 -0.202146z"/>
  <path class="fil5" d="M2.17882 2.37559c-0.0130079,-0.00768504 -0.0297874,-0.00337008 -0.0374724,0.0096378 -0.00768504,0.0130079 -0.00337008,0.0297874 0.0096378,0.0374724l0.201807 0.119165c0.0130079,0.00768504 0.0297874,0.00337008 0.0374724,-0.0096378 0.00768504,-0.0130079 0.00337008,-0.0297874 -0.0096378,-0.0374724l-0.201807 -0.119165z"/>
  <path class="fil6" d="M4.13696 2.73568c-0.126087,0.131831 -0.175732,0.313614 -0.250559,0.422571 -0.474724,0.691264 -1.07387,-0.507 0.250559,-0.422571z"/>
  <path class="fil7" d="M3.36243 4.3134c0.00451181,-0.153181 -0.141531,-0.670378 0.0339291,-1.02043 0.092122,-0.183783 0.222846,-0.296748 0.289795,-0.340268 0.0787992,-0.0512205 0.0937638,-0.0685354 0.184929,-0.102843l-0.000984252 0.00038189c0.0384252,-0.0103228 0.055185,-0.00901969 0.0930472,-0.0109606 -0.0297047,0.00828346 -0.00835039,0.00343307 -0.0450039,0.00915354 -0.0882598,0.0137756 -0.151079,0.0691496 -0.222343,0.11839 -0.0704724,0.0486969 -0.194244,0.167075 -0.276008,0.354398 -0.150843,0.345575 0.0314331,0.843681 0.0146181,0.992189l-0.0719803 -7.87402e-006z"/>
  <path class="fil7" d="M3.62776 2.99724c0.0145354,-0.00390945 0.0295433,-0.00735039 0.0450906,-0.0102638 0.0780512,-0.0146181 0.095311,-0.0233189 0.177567,-0.0207402l-0.000893701 -1.9685e-005c0.0333346,0.00432283 0.0460079,0.0107323 0.0762008,0.0214213 -0.0258661,-0.00310236 -0.00762598,-7.87402e-006 -0.0380945,-0.00735039 -0.0733701,-0.0176811 -0.140272,0.00533071 -0.211795,0.0208268 -0.0157126,0.00340551 -0.0307874,0.00730709 -0.0452992,0.0116614 0.00109449,-0.00533858 8.66142e-005,-0.0109094 -0.00277559,-0.0155354z"/>
  <path class="fil7" d="M3.49931 3.12867c0.00084252,-0.000161417 0.00167323,-0.000334646 0.00251969,-0.000492126 0.0923819,-0.0173031 0.112815,-0.0276024 0.210173,-0.0245472l-0.00105512 -2.3622e-005c0.0394567,0.00511417 0.0544528,0.0127047 0.0901929,0.0253543 -0.0306142,-0.00367323 -0.00902756,-1.1811e-005 -0.0450866,-0.00870472 -0.0868465,-0.0209213 -0.166035,0.00631102 -0.250689,0.0246575l-0.0018189 0.000405512c0.000570866,-0.00585039 -0.000933071,-0.0117795 -0.00423622,-0.0166496z"/>
  <path class="fil7" d="M3.71357 2.9521c0.00460236,-0.00894094 0.00879134,-0.0180394 0.0125118,-0.0273189 0.0186654,-0.0465866 0.0279882,-0.0581142 0.0305866,-0.103173l-3.54331e-005 0.000492126c-0.00205512,-0.0175276 -0.00736614,-0.023122 -0.0156575,-0.0374764 0.00135827,0.0136575 -0.000456693,0.00422835 0.00464173,0.0194882 0.0122756,0.0367441 -0.0136732,0.0790236 -0.0327756,0.122185 -0.00419685,0.00948031 -0.00882283,0.0187205 -0.0138465,0.027748 0.00513386,-0.00180709 0.0103622,-0.00249606 0.0145748,-0.00194488z"/>
  <path class="fil7" d="M3.54283 3.09689c0.000240157,-0.000602362 0.000496063,-0.00119685 0.000732283,-0.00180315 0.0261575,-0.0658858 0.0381299,-0.0812992 0.0453425,-0.147972l-8.66142e-005 0.000724409c-0.000783465,-0.0265197 -0.00647638,-0.0358661 -0.0148504,-0.0588465 0.000322835,0.0206142 -0.000929134,0.00621654 0.00362598,0.0299331 0.0109646,0.0571142 -0.023311,0.115201 -0.0496614,0.175898l-0.00057874 0.00130709c0.00565354,-0.00115354 0.0111654,-0.000885827 0.0154764,0.000759843z"/>
  <path class="fil6" d="M2.70524 3.19578c0.111815,0.038248 0.194543,0.128016 0.270055,0.168386 0.479071,0.256134 0.466587,-0.611657 -0.270055,-0.168386z"/>
  <path class="fil8" d="M3.37476 3.35284c-0.103445,-0.0703661 -0.196008,-0.151815 -0.345543,-0.166575 -0.0605945,-0.00598031 -0.0743583,-0.0114764 -0.13702,-0.00403937l0.000681102 -7.87402e-005c-0.0251772,0.00551575 -0.0344331,0.0112598 -0.0567874,0.0214291 0.0195512,-0.00409055 0.00582677,-0.000515748 0.0286102,-0.00814961 0.054874,-0.018378 0.107508,-0.00524803 0.163173,0.00183465 0.156602,0.019937 0.238917,0.108988 0.353587,0.185161l-0.00670079 -0.0295827z"/>
  <path class="fil8" d="M3.07608 3.19448c-0.00952362,0.00208268 -0.019185,0.0045748 -0.0289921,0.00753543 -0.049252,0.0148504 -0.0617756,0.0149882 -0.108319,0.0409882l0.000507874 -0.000279528c-0.0178858,0.0124213 -0.0232638,0.0198858 -0.0374449,0.0350315 0.0139528,-0.00949213 0.00438189,-0.00227953 0.0197205,-0.0155827 0.0369331,-0.0320354 0.0822717,-0.0387362 0.128031,-0.0511378 0.0100512,-0.00272441 0.0198858,-0.00497244 0.0295276,-0.00679528 -0.00222047,-0.00274409 -0.00329921,-0.00624803 -0.0030315,-0.00975984z"/>
  <path class="fil8" d="M3.18914 3.2318c-0.000535433,0.00015748 -0.00106299,0.000307087 -0.00159843,0.000468504 -0.0582953,0.0175787 -0.0731142,0.0177441 -0.128205,0.0485157l0.000598425 -0.000330709c-0.0211693,0.0147008 -0.0275354,0.0235394 -0.0443228,0.0414646 0.0165157,-0.0112362 0.00518898,-0.00269685 0.0233425,-0.0184409 0.0437165,-0.0379173 0.0973819,-0.0458543 0.151543,-0.0605315l0.00116535 -0.000307087c-0.00207087,-0.00319685 -0.00297244,-0.00705512 -0.00252362,-0.0108386z"/>
  <path class="fil8" d="M3.01328 3.19409c-0.00531496,-0.00377165 -0.0104331,-0.00775591 -0.0153386,-0.0119882 -0.024622,-0.0212283 -0.0334173,-0.0250827 -0.0483425,-0.0502283l0.000165354 0.000271654c-0.00403937,-0.0106929 -0.00265354,-0.0154921 -0.00216142,-0.0262205 0.00329134,0.00825984 0.00152362,0.00229528 0.0031378,0.0125945 0.00388976,0.0247913 0.0314173,0.041378 0.0552677,0.0605118 0.00524016,0.00420079 0.0106535,0.0081378 0.0162323,0.0118346 -0.00348819,0.000492126 -0.00670079,0.00164961 -0.00896063,0.00322441z"/>
  <path class="fil8" d="M3.15463 3.22649c-0.000318898,-0.000271654 -0.000641732,-0.00053937 -0.000956693,-0.000814961 -0.0346811,-0.0301024 -0.0461614,-0.0354016 -0.0701811,-0.0716024l0.000267717 0.000389764c-0.00745669,-0.0154843 -0.00696457,-0.0225591 -0.00899606,-0.0382717 0.00595669,0.0119528 0.00238583,0.00329921 0.00683465,0.0182953 0.0107126,0.036122 0.0477402,0.059315 0.0809843,0.086378l0.000724409 0.00057874c-0.00359843,0.00102362 -0.00668504,0.0028189 -0.00867717,0.00504724z"/>
  <polygon class="fil9" points="3.72667,5.11808 3.62317,5.27998 3.58037,5.28 3.24615,5.28 3.20986,5.28 3.1891,5.24944 3.09985,5.11808 "/>
  <path class="fil10" d="M3.72679 5.11789l-4.33071e-005 7.48031e-005 -7.87402e-005 0.000114173 -0.626815 0 -0.000129921 -0.00019685 -0.00719685 0.00019685c-0.00841732,0 -0.0169094,-0.000173228 -0.0253622,-0.000614173 -0.0692047,-0.00364173 -0.135752,-0.025689 -0.135752,-0.123634l0.000267717 0c0,-0.00575591 -0.000413386,-0.0289764 -0.000964567,-0.0560276 -0.000496063,-0.0242677 -0.0011378,-0.052311 -0.00171654,-0.0734055l-0.00195276 -0.0711102 0.0709016 0 0.830622 0 0.0703898 0 -0.00144094 0.0705709 -0.00265354 0.129972 0.000244094 0c0,0.105957 -0.0778858,0.123094 -0.152768,0.124189 -0.0027874,3.93701e-005 -0.00557087,5.90551e-005 -0.00834646,5.90551e-005l-0.00400787 -0.000106299 -0.00319685 -8.26772e-005z"/>
  <path class="fil11" d="M3.92816 4.93387l-1.0298 0c0,-0.206945 0,-0.413886 0,-0.620831l1.0298 0c0,0.206945 0,0.413886 0,0.620831z"/>
  <path class="fil12" d="M3.967 4.44934l-1.1075 0c0,-0.0454331 0,-0.0908661 0,-0.136299l1.1075 0c0,0.0454331 0,0.0908661 0,0.136299z"/>
  <path class="fil12" d="M3.967 4.65486l-1.1075 0c0,-0.0454331 0,-0.0908701 0,-0.136299l1.1075 0c0,0.0454291 0,0.0908661 0,0.136299z"/>
  <path class="fil12" d="M3.967 4.86037l-1.1075 0c0,-0.0454331 0,-0.0908661 0,-0.136299l1.1075 0c0,0.0454331 0,0.0908661 0,0.136299z"/>
 </g>
</svg>
