<svg id="visual" viewBox="0 0 750 1000" width="750" height="1000" xmlns="http://www.w3.org/2000/svg" xmlns:xlink="http://www.w3.org/1999/xlink" version="1.1"><rect x="0" y="0" width="750" height="1000" fill="#000319"></rect><path d="M0 486L33 486L33 667L65 667L65 575L98 575L98 598L130 598L130 610L163 610L163 588L196 588L196 706L228 706L228 553L261 553L261 655L293 655L293 647L326 647L326 641L359 641L359 438L391 438L391 497L424 497L424 684L457 684L457 571L489 571L489 536L522 536L522 663L554 663L554 475L587 475L587 457L620 457L620 485L652 485L652 665L685 665L685 589L717 589L717 614L750 614L750 657L750 1001L750 1001L717 1001L717 1001L685 1001L685 1001L652 1001L652 1001L620 1001L620 1001L587 1001L587 1001L554 1001L554 1001L522 1001L522 1001L489 1001L489 1001L457 1001L457 1001L424 1001L424 1001L391 1001L391 1001L359 1001L359 1001L326 1001L326 1001L293 1001L293 1001L261 1001L261 1001L228 1001L228 1001L196 1001L196 1001L163 1001L163 1001L130 1001L130 1001L98 1001L98 1001L65 1001L65 1001L33 1001L33 1001L0 1001Z" fill="#ff08dc"></path><path d="M0 569L33 569L33 596L65 596L65 548L98 548L98 552L130 552L130 492L163 492L163 562L196 562L196 537L228 537L228 704L261 704L261 641L293 641L293 642L326 642L326 708L359 708L359 512L391 512L391 563L424 563L424 727L457 727L457 513L489 513L489 521L522 521L522 508L554 508L554 528L587 528L587 715L620 715L620 641L652 641L652 612L685 612L685 613L717 613L717 633L750 633L750 502L750 1001L750 1001L717 1001L717 1001L685 1001L685 1001L652 1001L652 1001L620 1001L620 1001L587 1001L587 1001L554 1001L554 1001L522 1001L522 1001L489 1001L489 1001L457 1001L457 1001L424 1001L424 1001L391 1001L391 1001L359 1001L359 1001L326 1001L326 1001L293 1001L293 1001L261 1001L261 1001L228 1001L228 1001L196 1001L196 1001L163 1001L163 1001L130 1001L130 1001L98 1001L98 1001L65 1001L65 1001L33 1001L33 1001L0 1001Z" fill="#e90cd1"></path><path d="M0 710L33 710L33 626L65 626L65 651L98 651L98 611L130 611L130 611L163 611L163 575L196 575L196 727L228 727L228 738L261 738L261 740L293 740L293 622L326 622L326 614L359 614L359 571L391 571L391 706L424 706L424 689L457 689L457 563L489 563L489 761L522 761L522 584L554 584L554 642L587 642L587 663L620 663L620 548L652 548L652 759L685 759L685 601L717 601L717 747L750 747L750 714L750 1001L750 1001L717 1001L717 1001L685 1001L685 1001L652 1001L652 1001L620 1001L620 1001L587 1001L587 1001L554 1001L554 1001L522 1001L522 1001L489 1001L489 1001L457 1001L457 1001L424 1001L424 1001L391 1001L391 1001L359 1001L359 1001L326 1001L326 1001L293 1001L293 1001L261 1001L261 1001L228 1001L228 1001L196 1001L196 1001L163 1001L163 1001L130 1001L130 1001L98 1001L98 1001L65 1001L65 1001L33 1001L33 1001L0 1001Z" fill="#d30ec6"></path><path d="M0 769L33 769L33 770L65 770L65 603L98 603L98 693L130 693L130 674L163 674L163 756L196 756L196 775L228 775L228 698L261 698L261 776L293 776L293 623L326 623L326 628L359 628L359 659L391 659L391 566L424 566L424 778L457 778L457 754L489 754L489 636L522 636L522 595L554 595L554 637L587 637L587 705L620 705L620 667L652 667L652 761L685 761L685 571L717 571L717 585L750 585L750 714L750 1001L750 1001L717 1001L717 1001L685 1001L685 1001L652 1001L652 1001L620 1001L620 1001L587 1001L587 1001L554 1001L554 1001L522 1001L522 1001L489 1001L489 1001L457 1001L457 1001L424 1001L424 1001L391 1001L391 1001L359 1001L359 1001L326 1001L326 1001L293 1001L293 1001L261 1001L261 1001L228 1001L228 1001L196 1001L196 1001L163 1001L163 1001L130 1001L130 1001L98 1001L98 1001L65 1001L65 1001L33 1001L33 1001L0 1001Z" fill="#be0ebb"></path><path d="M0 748L33 748L33 689L65 689L65 728L98 728L98 800L130 800L130 654L163 654L163 637L196 637L196 759L228 759L228 697L261 697L261 735L293 735L293 734L326 734L326 713L359 713L359 715L391 715L391 780L424 780L424 719L457 719L457 660L489 660L489 805L522 805L522 709L554 709L554 636L587 636L587 734L620 734L620 686L652 686L652 810L685 810L685 792L717 792L717 773L750 773L750 735L750 1001L750 1001L717 1001L717 1001L685 1001L685 1001L652 1001L652 1001L620 1001L620 1001L587 1001L587 1001L554 1001L554 1001L522 1001L522 1001L489 1001L489 1001L457 1001L457 1001L424 1001L424 1001L391 1001L391 1001L359 1001L359 1001L326 1001L326 1001L293 1001L293 1001L261 1001L261 1001L228 1001L228 1001L196 1001L196 1001L163 1001L163 1001L130 1001L130 1001L98 1001L98 1001L65 1001L65 1001L33 1001L33 1001L0 1001Z" fill="#a90eaf"></path><path d="M0 666L33 666L33 683L65 683L65 791L98 791L98 707L130 707L130 676L163 676L163 689L196 689L196 703L228 703L228 789L261 789L261 774L293 774L293 763L326 763L326 667L359 667L359 830L391 830L391 818L424 818L424 763L457 763L457 734L489 734L489 688L522 688L522 758L554 758L554 698L587 698L587 770L620 770L620 709L652 709L652 709L685 709L685 701L717 701L717 689L750 689L750 667L750 1001L750 1001L717 1001L717 1001L685 1001L685 1001L652 1001L652 1001L620 1001L620 1001L587 1001L587 1001L554 1001L554 1001L522 1001L522 1001L489 1001L489 1001L457 1001L457 1001L424 1001L424 1001L391 1001L391 1001L359 1001L359 1001L326 1001L326 1001L293 1001L293 1001L261 1001L261 1001L228 1001L228 1001L196 1001L196 1001L163 1001L163 1001L130 1001L130 1001L98 1001L98 1001L65 1001L65 1001L33 1001L33 1001L0 1001Z" fill="#950da2"></path><path d="M0 776L33 776L33 829L65 829L65 803L98 803L98 843L130 843L130 781L163 781L163 724L196 724L196 740L228 740L228 862L261 862L261 712L293 712L293 828L326 828L326 783L359 783L359 806L391 806L391 821L424 821L424 699L457 699L457 807L489 807L489 715L522 715L522 774L554 774L554 742L587 742L587 853L620 853L620 703L652 703L652 842L685 842L685 758L717 758L717 716L750 716L750 811L750 1001L750 1001L717 1001L717 1001L685 1001L685 1001L652 1001L652 1001L620 1001L620 1001L587 1001L587 1001L554 1001L554 1001L522 1001L522 1001L489 1001L489 1001L457 1001L457 1001L424 1001L424 1001L391 1001L391 1001L359 1001L359 1001L326 1001L326 1001L293 1001L293 1001L261 1001L261 1001L228 1001L228 1001L196 1001L196 1001L163 1001L163 1001L130 1001L130 1001L98 1001L98 1001L65 1001L65 1001L33 1001L33 1001L0 1001Z" fill="#810b96"></path><path d="M0 846L33 846L33 867L65 867L65 859L98 859L98 755L130 755L130 795L163 795L163 782L196 782L196 881L228 881L228 861L261 861L261 847L293 847L293 888L326 888L326 849L359 849L359 837L391 837L391 802L424 802L424 786L457 786L457 802L489 802L489 830L522 830L522 878L554 878L554 824L587 824L587 784L620 784L620 773L652 773L652 834L685 834L685 856L717 856L717 871L750 871L750 776L750 1001L750 1001L717 1001L717 1001L685 1001L685 1001L652 1001L652 1001L620 1001L620 1001L587 1001L587 1001L554 1001L554 1001L522 1001L522 1001L489 1001L489 1001L457 1001L457 1001L424 1001L424 1001L391 1001L391 1001L359 1001L359 1001L326 1001L326 1001L293 1001L293 1001L261 1001L261 1001L228 1001L228 1001L196 1001L196 1001L163 1001L163 1001L130 1001L130 1001L98 1001L98 1001L65 1001L65 1001L33 1001L33 1001L0 1001Z" fill="#6e0989"></path><path d="M0 889L33 889L33 786L65 786L65 864L98 864L98 807L130 807L130 840L163 840L163 807L196 807L196 814L228 814L228 909L261 909L261 789L293 789L293 835L326 835L326 786L359 786L359 884L391 884L391 879L424 879L424 900L457 900L457 878L489 878L489 834L522 834L522 877L554 877L554 889L587 889L587 825L620 825L620 869L652 869L652 815L685 815L685 873L717 873L717 897L750 897L750 809L750 1001L750 1001L717 1001L717 1001L685 1001L685 1001L652 1001L652 1001L620 1001L620 1001L587 1001L587 1001L554 1001L554 1001L522 1001L522 1001L489 1001L489 1001L457 1001L457 1001L424 1001L424 1001L391 1001L391 1001L359 1001L359 1001L326 1001L326 1001L293 1001L293 1001L261 1001L261 1001L228 1001L228 1001L196 1001L196 1001L163 1001L163 1001L130 1001L130 1001L98 1001L98 1001L65 1001L65 1001L33 1001L33 1001L0 1001Z" fill="#5c067b"></path><path d="M0 858L33 858L33 836L65 836L65 876L98 876L98 884L130 884L130 923L163 923L163 934L196 934L196 899L228 899L228 923L261 923L261 914L293 914L293 915L326 915L326 856L359 856L359 830L391 830L391 891L424 891L424 848L457 848L457 837L489 837L489 918L522 918L522 872L554 872L554 869L587 869L587 896L620 896L620 835L652 835L652 939L685 939L685 912L717 912L717 834L750 834L750 850L750 1001L750 1001L717 1001L717 1001L685 1001L685 1001L652 1001L652 1001L620 1001L620 1001L587 1001L587 1001L554 1001L554 1001L522 1001L522 1001L489 1001L489 1001L457 1001L457 1001L424 1001L424 1001L391 1001L391 1001L359 1001L359 1001L326 1001L326 1001L293 1001L293 1001L261 1001L261 1001L228 1001L228 1001L196 1001L196 1001L163 1001L163 1001L130 1001L130 1001L98 1001L98 1001L65 1001L65 1001L33 1001L33 1001L0 1001Z" fill="#4b046e"></path><path d="M0 945L33 945L33 954L65 954L65 928L98 928L98 902L130 902L130 903L163 903L163 929L196 929L196 922L228 922L228 947L261 947L261 954L293 954L293 928L326 928L326 902L359 902L359 884L391 884L391 939L424 939L424 935L457 935L457 873L489 873L489 875L522 875L522 898L554 898L554 886L587 886L587 895L620 895L620 944L652 944L652 953L685 953L685 938L717 938L717 929L750 929L750 963L750 1001L750 1001L717 1001L717 1001L685 1001L685 1001L652 1001L652 1001L620 1001L620 1001L587 1001L587 1001L554 1001L554 1001L522 1001L522 1001L489 1001L489 1001L457 1001L457 1001L424 1001L424 1001L391 1001L391 1001L359 1001L359 1001L326 1001L326 1001L293 1001L293 1001L261 1001L261 1001L228 1001L228 1001L196 1001L196 1001L163 1001L163 1001L130 1001L130 1001L98 1001L98 1001L65 1001L65 1001L33 1001L33 1001L0 1001Z" fill="#3a0261"></path><path d="M0 941L33 941L33 950L65 950L65 986L98 986L98 964L130 964L130 963L163 963L163 923L196 923L196 973L228 973L228 977L261 977L261 953L293 953L293 977L326 977L326 965L359 965L359 919L391 919L391 977L424 977L424 986L457 986L457 939L489 939L489 956L522 956L522 932L554 932L554 974L587 974L587 934L620 934L620 958L652 958L652 954L685 954L685 968L717 968L717 982L750 982L750 983L750 1001L750 1001L717 1001L717 1001L685 1001L685 1001L652 1001L652 1001L620 1001L620 1001L587 1001L587 1001L554 1001L554 1001L522 1001L522 1001L489 1001L489 1001L457 1001L457 1001L424 1001L424 1001L391 1001L391 1001L359 1001L359 1001L326 1001L326 1001L293 1001L293 1001L261 1001L261 1001L228 1001L228 1001L196 1001L196 1001L163 1001L163 1001L130 1001L130 1001L98 1001L98 1001L65 1001L65 1001L33 1001L33 1001L0 1001Z" fill="#2a0053"></path></svg>