<svg id="visual" viewBox="0 0 750 1000" width="750" height="1000" xmlns="http://www.w3.org/2000/svg" xmlns:xlink="http://www.w3.org/1999/xlink" version="1.1"><rect x="0" y="0" width="750" height="1000" fill="#000319"></rect><path d="M0 512L33 512L33 331L65 331L65 423L98 423L98 400L130 400L130 388L163 388L163 410L196 410L196 292L228 292L228 445L261 445L261 343L293 343L293 351L326 351L326 357L359 357L359 560L391 560L391 501L424 501L424 314L457 314L457 427L489 427L489 462L522 462L522 335L554 335L554 523L587 523L587 541L620 541L620 513L652 513L652 333L685 333L685 409L717 409L717 384L750 384L750 341L750 0L750 0L717 0L717 0L685 0L685 0L652 0L652 0L620 0L620 0L587 0L587 0L554 0L554 0L522 0L522 0L489 0L489 0L457 0L457 0L424 0L424 0L391 0L391 0L359 0L359 0L326 0L326 0L293 0L293 0L261 0L261 0L228 0L228 0L196 0L196 0L163 0L163 0L130 0L130 0L98 0L98 0L65 0L65 0L33 0L33 0L0 0Z" fill="#ff08dc"></path><path d="M0 429L33 429L33 402L65 402L65 450L98 450L98 446L130 446L130 506L163 506L163 436L196 436L196 461L228 461L228 294L261 294L261 357L293 357L293 356L326 356L326 290L359 290L359 486L391 486L391 435L424 435L424 271L457 271L457 485L489 485L489 477L522 477L522 490L554 490L554 470L587 470L587 283L620 283L620 357L652 357L652 386L685 386L685 385L717 385L717 365L750 365L750 496L750 0L750 0L717 0L717 0L685 0L685 0L652 0L652 0L620 0L620 0L587 0L587 0L554 0L554 0L522 0L522 0L489 0L489 0L457 0L457 0L424 0L424 0L391 0L391 0L359 0L359 0L326 0L326 0L293 0L293 0L261 0L261 0L228 0L228 0L196 0L196 0L163 0L163 0L130 0L130 0L98 0L98 0L65 0L65 0L33 0L33 0L0 0Z" fill="#e90cd1"></path><path d="M0 288L33 288L33 372L65 372L65 347L98 347L98 387L130 387L130 387L163 387L163 423L196 423L196 271L228 271L228 260L261 260L261 258L293 258L293 376L326 376L326 384L359 384L359 427L391 427L391 292L424 292L424 309L457 309L457 435L489 435L489 237L522 237L522 414L554 414L554 356L587 356L587 335L620 335L620 450L652 450L652 239L685 239L685 397L717 397L717 251L750 251L750 284L750 0L750 0L717 0L717 0L685 0L685 0L652 0L652 0L620 0L620 0L587 0L587 0L554 0L554 0L522 0L522 0L489 0L489 0L457 0L457 0L424 0L424 0L391 0L391 0L359 0L359 0L326 0L326 0L293 0L293 0L261 0L261 0L228 0L228 0L196 0L196 0L163 0L163 0L130 0L130 0L98 0L98 0L65 0L65 0L33 0L33 0L0 0Z" fill="#d30ec6"></path><path d="M0 229L33 229L33 228L65 228L65 395L98 395L98 305L130 305L130 324L163 324L163 242L196 242L196 223L228 223L228 300L261 300L261 222L293 222L293 375L326 375L326 370L359 370L359 339L391 339L391 432L424 432L424 220L457 220L457 244L489 244L489 362L522 362L522 403L554 403L554 361L587 361L587 293L620 293L620 331L652 331L652 237L685 237L685 427L717 427L717 413L750 413L750 284L750 0L750 0L717 0L717 0L685 0L685 0L652 0L652 0L620 0L620 0L587 0L587 0L554 0L554 0L522 0L522 0L489 0L489 0L457 0L457 0L424 0L424 0L391 0L391 0L359 0L359 0L326 0L326 0L293 0L293 0L261 0L261 0L228 0L228 0L196 0L196 0L163 0L163 0L130 0L130 0L98 0L98 0L65 0L65 0L33 0L33 0L0 0Z" fill="#be0ebb"></path><path d="M0 250L33 250L33 310L65 310L65 270L98 270L98 198L130 198L130 344L163 344L163 361L196 361L196 239L228 239L228 301L261 301L261 263L293 263L293 264L326 264L326 285L359 285L359 283L391 283L391 218L424 218L424 279L457 279L457 338L489 338L489 193L522 193L522 289L554 289L554 362L587 362L587 264L620 264L620 312L652 312L652 188L685 188L685 206L717 206L717 225L750 225L750 263L750 0L750 0L717 0L717 0L685 0L685 0L652 0L652 0L620 0L620 0L587 0L587 0L554 0L554 0L522 0L522 0L489 0L489 0L457 0L457 0L424 0L424 0L391 0L391 0L359 0L359 0L326 0L326 0L293 0L293 0L261 0L261 0L228 0L228 0L196 0L196 0L163 0L163 0L130 0L130 0L98 0L98 0L65 0L65 0L33 0L33 0L0 0Z" fill="#a90eaf"></path><path d="M0 332L33 332L33 315L65 315L65 207L98 207L98 291L130 291L130 322L163 322L163 309L196 309L196 295L228 295L228 209L261 209L261 224L293 224L293 235L326 235L326 331L359 331L359 168L391 168L391 180L424 180L424 235L457 235L457 264L489 264L489 310L522 310L522 240L554 240L554 300L587 300L587 228L620 228L620 289L652 289L652 289L685 289L685 297L717 297L717 309L750 309L750 331L750 0L750 0L717 0L717 0L685 0L685 0L652 0L652 0L620 0L620 0L587 0L587 0L554 0L554 0L522 0L522 0L489 0L489 0L457 0L457 0L424 0L424 0L391 0L391 0L359 0L359 0L326 0L326 0L293 0L293 0L261 0L261 0L228 0L228 0L196 0L196 0L163 0L163 0L130 0L130 0L98 0L98 0L65 0L65 0L33 0L33 0L0 0Z" fill="#950da2"></path><path d="M0 222L33 222L33 169L65 169L65 195L98 195L98 155L130 155L130 217L163 217L163 274L196 274L196 258L228 258L228 136L261 136L261 286L293 286L293 170L326 170L326 215L359 215L359 192L391 192L391 177L424 177L424 299L457 299L457 191L489 191L489 283L522 283L522 224L554 224L554 256L587 256L587 145L620 145L620 295L652 295L652 156L685 156L685 240L717 240L717 282L750 282L750 187L750 0L750 0L717 0L717 0L685 0L685 0L652 0L652 0L620 0L620 0L587 0L587 0L554 0L554 0L522 0L522 0L489 0L489 0L457 0L457 0L424 0L424 0L391 0L391 0L359 0L359 0L326 0L326 0L293 0L293 0L261 0L261 0L228 0L228 0L196 0L196 0L163 0L163 0L130 0L130 0L98 0L98 0L65 0L65 0L33 0L33 0L0 0Z" fill="#810b96"></path><path d="M0 152L33 152L33 131L65 131L65 139L98 139L98 243L130 243L130 203L163 203L163 216L196 216L196 117L228 117L228 137L261 137L261 151L293 151L293 110L326 110L326 149L359 149L359 161L391 161L391 196L424 196L424 212L457 212L457 196L489 196L489 168L522 168L522 120L554 120L554 174L587 174L587 214L620 214L620 225L652 225L652 164L685 164L685 142L717 142L717 127L750 127L750 222L750 0L750 0L717 0L717 0L685 0L685 0L652 0L652 0L620 0L620 0L587 0L587 0L554 0L554 0L522 0L522 0L489 0L489 0L457 0L457 0L424 0L424 0L391 0L391 0L359 0L359 0L326 0L326 0L293 0L293 0L261 0L261 0L228 0L228 0L196 0L196 0L163 0L163 0L130 0L130 0L98 0L98 0L65 0L65 0L33 0L33 0L0 0Z" fill="#6e0989"></path><path d="M0 109L33 109L33 212L65 212L65 134L98 134L98 191L130 191L130 158L163 158L163 191L196 191L196 184L228 184L228 89L261 89L261 209L293 209L293 163L326 163L326 212L359 212L359 114L391 114L391 119L424 119L424 98L457 98L457 120L489 120L489 164L522 164L522 121L554 121L554 109L587 109L587 173L620 173L620 129L652 129L652 183L685 183L685 125L717 125L717 101L750 101L750 189L750 0L750 0L717 0L717 0L685 0L685 0L652 0L652 0L620 0L620 0L587 0L587 0L554 0L554 0L522 0L522 0L489 0L489 0L457 0L457 0L424 0L424 0L391 0L391 0L359 0L359 0L326 0L326 0L293 0L293 0L261 0L261 0L228 0L228 0L196 0L196 0L163 0L163 0L130 0L130 0L98 0L98 0L65 0L65 0L33 0L33 0L0 0Z" fill="#5c067b"></path><path d="M0 140L33 140L33 162L65 162L65 122L98 122L98 114L130 114L130 75L163 75L163 64L196 64L196 99L228 99L228 75L261 75L261 84L293 84L293 83L326 83L326 142L359 142L359 168L391 168L391 107L424 107L424 150L457 150L457 161L489 161L489 80L522 80L522 126L554 126L554 129L587 129L587 102L620 102L620 163L652 163L652 59L685 59L685 86L717 86L717 164L750 164L750 148L750 0L750 0L717 0L717 0L685 0L685 0L652 0L652 0L620 0L620 0L587 0L587 0L554 0L554 0L522 0L522 0L489 0L489 0L457 0L457 0L424 0L424 0L391 0L391 0L359 0L359 0L326 0L326 0L293 0L293 0L261 0L261 0L228 0L228 0L196 0L196 0L163 0L163 0L130 0L130 0L98 0L98 0L65 0L65 0L33 0L33 0L0 0Z" fill="#4b046e"></path><path d="M0 53L33 53L33 44L65 44L65 70L98 70L98 96L130 96L130 95L163 95L163 69L196 69L196 76L228 76L228 51L261 51L261 44L293 44L293 70L326 70L326 96L359 96L359 114L391 114L391 59L424 59L424 63L457 63L457 125L489 125L489 123L522 123L522 100L554 100L554 112L587 112L587 103L620 103L620 54L652 54L652 45L685 45L685 60L717 60L717 69L750 69L750 35L750 0L750 0L717 0L717 0L685 0L685 0L652 0L652 0L620 0L620 0L587 0L587 0L554 0L554 0L522 0L522 0L489 0L489 0L457 0L457 0L424 0L424 0L391 0L391 0L359 0L359 0L326 0L326 0L293 0L293 0L261 0L261 0L228 0L228 0L196 0L196 0L163 0L163 0L130 0L130 0L98 0L98 0L65 0L65 0L33 0L33 0L0 0Z" fill="#3a0261"></path><path d="M0 57L33 57L33 48L65 48L65 12L98 12L98 34L130 34L130 35L163 35L163 75L196 75L196 25L228 25L228 21L261 21L261 45L293 45L293 21L326 21L326 33L359 33L359 79L391 79L391 21L424 21L424 12L457 12L457 59L489 59L489 42L522 42L522 66L554 66L554 24L587 24L587 64L620 64L620 40L652 40L652 44L685 44L685 30L717 30L717 16L750 16L750 15L750 0L750 0L717 0L717 0L685 0L685 0L652 0L652 0L620 0L620 0L587 0L587 0L554 0L554 0L522 0L522 0L489 0L489 0L457 0L457 0L424 0L424 0L391 0L391 0L359 0L359 0L326 0L326 0L293 0L293 0L261 0L261 0L228 0L228 0L196 0L196 0L163 0L163 0L130 0L130 0L98 0L98 0L65 0L65 0L33 0L33 0L0 0Z" fill="#2a0053"></path></svg>