<svg id="visual" viewBox="0 0 1050 900" width="1050" height="900" xmlns="http://www.w3.org/2000/svg" xmlns:xlink="http://www.w3.org/1999/xlink" version="1.1"><rect x="0" y="0" width="1050" height="900" fill="#000319"></rect><path d="M0 174L46 174L46 160L91 160L91 186L137 186L137 158L183 158L183 174L228 174L228 234L274 234L274 168L320 168L320 158L365 158L365 170L411 170L411 220L457 220L457 186L502 186L502 214L548 214L548 195L593 195L593 168L639 168L639 235L685 235L685 232L730 232L730 164L776 164L776 184L822 184L822 163L867 163L867 246L913 246L913 244L959 244L959 165L1004 165L1004 228L1050 228L1050 161L1050 0L1050 0L1004 0L1004 0L959 0L959 0L913 0L913 0L867 0L867 0L822 0L822 0L776 0L776 0L730 0L730 0L685 0L685 0L639 0L639 0L593 0L593 0L548 0L548 0L502 0L502 0L457 0L457 0L411 0L411 0L365 0L365 0L320 0L320 0L274 0L274 0L228 0L228 0L183 0L183 0L137 0L137 0L91 0L91 0L46 0L46 0L0 0Z" fill="#ff08dc"></path><path d="M0 178L46 178L46 200L91 200L91 144L137 144L137 188L183 188L183 201L228 201L228 193L274 193L274 204L320 204L320 225L365 225L365 158L411 158L411 185L457 185L457 148L502 148L502 205L548 205L548 202L593 202L593 217L639 217L639 169L685 169L685 188L730 188L730 209L776 209L776 164L822 164L822 223L867 223L867 206L913 206L913 150L959 150L959 186L1004 186L1004 170L1050 170L1050 156L1050 0L1050 0L1004 0L1004 0L959 0L959 0L913 0L913 0L867 0L867 0L822 0L822 0L776 0L776 0L730 0L730 0L685 0L685 0L639 0L639 0L593 0L593 0L548 0L548 0L502 0L502 0L457 0L457 0L411 0L411 0L365 0L365 0L320 0L320 0L274 0L274 0L228 0L228 0L183 0L183 0L137 0L137 0L91 0L91 0L46 0L46 0L0 0Z" fill="#e90cd1"></path><path d="M0 194L46 194L46 196L91 196L91 143L137 143L137 186L183 186L183 168L228 168L228 200L274 200L274 184L320 184L320 199L365 199L365 191L411 191L411 185L457 185L457 149L502 149L502 163L548 163L548 179L593 179L593 175L639 175L639 130L685 130L685 150L730 150L730 198L776 198L776 134L822 134L822 129L867 129L867 200L913 200L913 156L959 156L959 160L1004 160L1004 150L1050 150L1050 159L1050 0L1050 0L1004 0L1004 0L959 0L959 0L913 0L913 0L867 0L867 0L822 0L822 0L776 0L776 0L730 0L730 0L685 0L685 0L639 0L639 0L593 0L593 0L548 0L548 0L502 0L502 0L457 0L457 0L411 0L411 0L365 0L365 0L320 0L320 0L274 0L274 0L228 0L228 0L183 0L183 0L137 0L137 0L91 0L91 0L46 0L46 0L0 0Z" fill="#d30ec6"></path><path d="M0 176L46 176L46 123L91 123L91 170L137 170L137 150L183 150L183 155L228 155L228 140L274 140L274 158L320 158L320 122L365 122L365 121L411 121L411 152L457 152L457 156L502 156L502 173L548 173L548 167L593 167L593 127L639 127L639 130L685 130L685 116L730 116L730 147L776 147L776 128L822 128L822 189L867 189L867 184L913 184L913 141L959 141L959 179L1004 179L1004 188L1050 188L1050 174L1050 0L1050 0L1004 0L1004 0L959 0L959 0L913 0L913 0L867 0L867 0L822 0L822 0L776 0L776 0L730 0L730 0L685 0L685 0L639 0L639 0L593 0L593 0L548 0L548 0L502 0L502 0L457 0L457 0L411 0L411 0L365 0L365 0L320 0L320 0L274 0L274 0L228 0L228 0L183 0L183 0L137 0L137 0L91 0L91 0L46 0L46 0L0 0Z" fill="#be0ebb"></path><path d="M0 126L46 126L46 148L91 148L91 167L137 167L137 111L183 111L183 111L228 111L228 142L274 142L274 124L320 124L320 148L365 148L365 143L411 143L411 164L457 164L457 147L502 147L502 104L548 104L548 120L593 120L593 122L639 122L639 131L685 131L685 158L730 158L730 106L776 106L776 133L822 133L822 170L867 170L867 147L913 147L913 107L959 107L959 109L1004 109L1004 139L1050 139L1050 115L1050 0L1050 0L1004 0L1004 0L959 0L959 0L913 0L913 0L867 0L867 0L822 0L822 0L776 0L776 0L730 0L730 0L685 0L685 0L639 0L639 0L593 0L593 0L548 0L548 0L502 0L502 0L457 0L457 0L411 0L411 0L365 0L365 0L320 0L320 0L274 0L274 0L228 0L228 0L183 0L183 0L137 0L137 0L91 0L91 0L46 0L46 0L0 0Z" fill="#a90eaf"></path><path d="M0 110L46 110L46 128L91 128L91 98L137 98L137 112L183 112L183 118L228 118L228 110L274 110L274 136L320 136L320 137L365 137L365 145L411 145L411 105L457 105L457 94L502 94L502 134L548 134L548 112L593 112L593 110L639 110L639 122L685 122L685 144L730 144L730 113L776 113L776 141L822 141L822 92L867 92L867 96L913 96L913 122L959 122L959 136L1004 136L1004 116L1050 116L1050 102L1050 0L1050 0L1004 0L1004 0L959 0L959 0L913 0L913 0L867 0L867 0L822 0L822 0L776 0L776 0L730 0L730 0L685 0L685 0L639 0L639 0L593 0L593 0L548 0L548 0L502 0L502 0L457 0L457 0L411 0L411 0L365 0L365 0L320 0L320 0L274 0L274 0L228 0L228 0L183 0L183 0L137 0L137 0L91 0L91 0L46 0L46 0L0 0Z" fill="#950da2"></path><path d="M0 90L46 90L46 131L91 131L91 90L137 90L137 129L183 129L183 114L228 114L228 78L274 78L274 90L320 90L320 104L365 104L365 122L411 122L411 104L457 104L457 113L502 113L502 115L548 115L548 112L593 112L593 131L639 131L639 96L685 96L685 109L730 109L730 100L776 100L776 129L822 129L822 93L867 93L867 85L913 85L913 88L959 88L959 114L1004 114L1004 77L1050 77L1050 80L1050 0L1050 0L1004 0L1004 0L959 0L959 0L913 0L913 0L867 0L867 0L822 0L822 0L776 0L776 0L730 0L730 0L685 0L685 0L639 0L639 0L593 0L593 0L548 0L548 0L502 0L502 0L457 0L457 0L411 0L411 0L365 0L365 0L320 0L320 0L274 0L274 0L228 0L228 0L183 0L183 0L137 0L137 0L91 0L91 0L46 0L46 0L0 0Z" fill="#810b96"></path><path d="M0 65L46 65L46 81L91 81L91 77L137 77L137 77L183 77L183 60L228 60L228 99L274 99L274 78L320 78L320 98L365 98L365 67L411 67L411 104L457 104L457 74L502 74L502 84L548 84L548 104L593 104L593 84L639 84L639 110L685 110L685 86L730 86L730 104L776 104L776 60L822 60L822 105L867 105L867 81L913 81L913 78L959 78L959 100L1004 100L1004 82L1050 82L1050 98L1050 0L1050 0L1004 0L1004 0L959 0L959 0L913 0L913 0L867 0L867 0L822 0L822 0L776 0L776 0L730 0L730 0L685 0L685 0L639 0L639 0L593 0L593 0L548 0L548 0L502 0L502 0L457 0L457 0L411 0L411 0L365 0L365 0L320 0L320 0L274 0L274 0L228 0L228 0L183 0L183 0L137 0L137 0L91 0L91 0L46 0L46 0L0 0Z" fill="#6e0989"></path><path d="M0 91L46 91L46 53L91 53L91 58L137 58L137 47L183 47L183 79L228 79L228 81L274 81L274 77L320 77L320 47L365 47L365 66L411 66L411 49L457 49L457 63L502 63L502 67L548 67L548 59L593 59L593 89L639 89L639 84L685 84L685 60L730 60L730 63L776 63L776 60L822 60L822 76L867 76L867 83L913 83L913 65L959 65L959 71L1004 71L1004 65L1050 65L1050 85L1050 0L1050 0L1004 0L1004 0L959 0L959 0L913 0L913 0L867 0L867 0L822 0L822 0L776 0L776 0L730 0L730 0L685 0L685 0L639 0L639 0L593 0L593 0L548 0L548 0L502 0L502 0L457 0L457 0L411 0L411 0L365 0L365 0L320 0L320 0L274 0L274 0L228 0L228 0L183 0L183 0L137 0L137 0L91 0L91 0L46 0L46 0L0 0Z" fill="#5c067b"></path><path d="M0 67L46 67L46 51L91 51L91 43L137 43L137 56L183 56L183 69L228 69L228 39L274 39L274 69L320 69L320 71L365 71L365 71L411 71L411 40L457 40L457 57L502 57L502 64L548 64L548 57L593 57L593 65L639 65L639 42L685 42L685 73L730 73L730 41L776 41L776 64L822 64L822 59L867 59L867 52L913 52L913 68L959 68L959 35L1004 35L1004 63L1050 63L1050 64L1050 0L1050 0L1004 0L1004 0L959 0L959 0L913 0L913 0L867 0L867 0L822 0L822 0L776 0L776 0L730 0L730 0L685 0L685 0L639 0L639 0L593 0L593 0L548 0L548 0L502 0L502 0L457 0L457 0L411 0L411 0L365 0L365 0L320 0L320 0L274 0L274 0L228 0L228 0L183 0L183 0L137 0L137 0L91 0L91 0L46 0L46 0L0 0Z" fill="#4b046e"></path><path d="M0 26L46 26L46 31L91 31L91 33L137 33L137 43L183 43L183 40L228 40L228 33L274 33L274 47L320 47L320 19L365 19L365 24L411 24L411 35L457 35L457 51L502 51L502 32L548 32L548 43L593 43L593 22L639 22L639 31L685 31L685 25L730 25L730 31L776 31L776 51L822 51L822 42L867 42L867 27L913 27L913 37L959 37L959 48L1004 48L1004 45L1050 45L1050 42L1050 0L1050 0L1004 0L1004 0L959 0L959 0L913 0L913 0L867 0L867 0L822 0L822 0L776 0L776 0L730 0L730 0L685 0L685 0L639 0L639 0L593 0L593 0L548 0L548 0L502 0L502 0L457 0L457 0L411 0L411 0L365 0L365 0L320 0L320 0L274 0L274 0L228 0L228 0L183 0L183 0L137 0L137 0L91 0L91 0L46 0L46 0L0 0Z" fill="#3a0261"></path><path d="M0 27L46 27L46 10L91 10L91 27L137 27L137 20L183 20L183 15L228 15L228 33L274 33L274 18L320 18L320 23L365 23L365 21L411 21L411 19L457 19L457 31L502 31L502 14L548 14L548 18L593 18L593 16L639 16L639 11L685 11L685 17L730 17L730 6L776 6L776 27L822 27L822 20L867 20L867 20L913 20L913 11L959 11L959 34L1004 34L1004 14L1050 14L1050 25L1050 0L1050 0L1004 0L1004 0L959 0L959 0L913 0L913 0L867 0L867 0L822 0L822 0L776 0L776 0L730 0L730 0L685 0L685 0L639 0L639 0L593 0L593 0L548 0L548 0L502 0L502 0L457 0L457 0L411 0L411 0L365 0L365 0L320 0L320 0L274 0L274 0L228 0L228 0L183 0L183 0L137 0L137 0L91 0L91 0L46 0L46 0L0 0Z" fill="#2a0053"></path></svg>