<svg id="visual" viewBox="0 0 2000 600" width="2000" height="600" xmlns="http://www.w3.org/2000/svg" xmlns:xlink="http://www.w3.org/1999/xlink" version="1.1"><rect x="0" y="0" width="2000" height="600" fill="#140021"></rect><path d="M1096 0L1124 0L1124 26L1188 26L1188 52L1011 52L1011 78L914 78L914 104L896 104L896 130L1052 130L1052 157L1049 157L1049 183L821 183L821 209L1125 209L1125 235L821 235L821 261L1094 261L1094 287L993 287L993 313L790 313L790 339L1169 339L1169 365L1103 365L1103 391L942 391L942 417L1126 417L1126 443L1034 443L1034 470L877 470L877 496L1192 496L1192 522L871 522L871 548L1116 548L1116 574L892 574L892 600L0 600L0 574L0 574L0 548L0 548L0 522L0 522L0 496L0 496L0 470L0 470L0 443L0 443L0 417L0 417L0 391L0 391L0 365L0 365L0 339L0 339L0 313L0 313L0 287L0 287L0 261L0 261L0 235L0 235L0 209L0 209L0 183L0 183L0 157L0 157L0 130L0 130L0 104L0 104L0 78L0 78L0 52L0 52L0 26L0 26L0 0L0 0Z" fill="#38005e"></path><path d="M911 0L794 0L794 26L1015 26L1015 52L752 52L752 78L939 78L939 104L991 104L991 130L703 130L703 157L746 157L746 183L796 183L796 209L958 209L958 235L892 235L892 261L818 261L818 287L948 287L948 313L921 313L921 339L970 339L970 365L748 365L748 391L704 391L704 417L771 417L771 443L913 443L913 470L1005 470L1005 496L1022 496L1022 522L985 522L985 548L850 548L850 574L792 574L792 600L0 600L0 574L0 574L0 548L0 548L0 522L0 522L0 496L0 496L0 470L0 470L0 443L0 443L0 417L0 417L0 391L0 391L0 365L0 365L0 339L0 339L0 313L0 313L0 287L0 287L0 261L0 261L0 235L0 235L0 209L0 209L0 183L0 183L0 157L0 157L0 130L0 130L0 104L0 104L0 78L0 78L0 52L0 52L0 26L0 26L0 0L0 0Z" fill="#4b026d"></path><path d="M971 0L874 0L874 26L755 26L755 52L739 52L739 78L703 78L703 104L841 104L841 130L856 130L856 157L917 157L917 183L799 183L799 209L647 209L647 235L700 235L700 261L713 261L713 287L769 287L769 313L924 313L924 339L832 339L832 365L920 365L920 391L854 391L854 417L746 417L746 443L848 443L848 470L954 470L954 496L660 496L660 522L891 522L891 548L643 548L643 574L954 574L954 600L0 600L0 574L0 574L0 548L0 548L0 522L0 522L0 496L0 496L0 470L0 470L0 443L0 443L0 417L0 417L0 391L0 391L0 365L0 365L0 339L0 339L0 313L0 313L0 287L0 287L0 261L0 261L0 235L0 235L0 209L0 209L0 183L0 183L0 157L0 157L0 130L0 130L0 104L0 104L0 78L0 78L0 52L0 52L0 26L0 26L0 0L0 0Z" fill="#5e047c"></path><path d="M806 0L656 0L656 26L669 26L669 52L710 52L710 78L783 78L783 104L842 104L842 130L781 130L781 157L826 157L826 183L830 183L830 209L763 209L763 235L545 235L545 261L667 261L667 287L618 287L618 313L788 313L788 339L682 339L682 365L752 365L752 391L632 391L632 417L551 417L551 443L669 443L669 470L699 470L699 496L754 496L754 522L765 522L765 548L710 548L710 574L857 574L857 600L0 600L0 574L0 574L0 548L0 548L0 522L0 522L0 496L0 496L0 470L0 470L0 443L0 443L0 417L0 417L0 391L0 391L0 365L0 365L0 339L0 339L0 313L0 313L0 287L0 287L0 261L0 261L0 235L0 235L0 209L0 209L0 183L0 183L0 157L0 157L0 130L0 130L0 104L0 104L0 78L0 78L0 52L0 52L0 26L0 26L0 0L0 0Z" fill="#73078b"></path><path d="M572 0L659 0L659 26L523 26L523 52L552 52L552 78L629 78L629 104L665 104L665 130L617 130L617 157L728 157L728 183L542 183L542 209L518 209L518 235L745 235L745 261L494 261L494 287L593 287L593 313L520 313L520 339L740 339L740 365L529 365L529 391L555 391L555 417L716 417L716 443L512 443L512 470L563 470L563 496L591 496L591 522L723 522L723 548L701 548L701 574L669 574L669 600L0 600L0 574L0 574L0 548L0 548L0 522L0 522L0 496L0 496L0 470L0 470L0 443L0 443L0 417L0 417L0 391L0 391L0 365L0 365L0 339L0 339L0 313L0 313L0 287L0 287L0 261L0 261L0 235L0 235L0 209L0 209L0 183L0 183L0 157L0 157L0 130L0 130L0 104L0 104L0 78L0 78L0 52L0 52L0 26L0 26L0 0L0 0Z" fill="#880a9a"></path><path d="M526 0L423 0L423 26L546 26L546 52L448 52L448 78L593 78L593 104L433 104L433 130L554 130L554 157L419 157L419 183L506 183L506 209L410 209L410 235L537 235L537 261L594 261L594 287L584 287L584 313L552 313L552 339L461 339L461 365L465 365L465 391L587 391L587 417L590 417L590 443L524 443L524 470L475 470L475 496L602 496L602 522L444 522L444 548L418 548L418 574L570 574L570 600L0 600L0 574L0 574L0 548L0 548L0 522L0 522L0 496L0 496L0 470L0 470L0 443L0 443L0 417L0 417L0 391L0 391L0 365L0 365L0 339L0 339L0 313L0 313L0 287L0 287L0 261L0 261L0 235L0 235L0 209L0 209L0 183L0 183L0 157L0 157L0 130L0 130L0 104L0 104L0 78L0 78L0 52L0 52L0 26L0 26L0 0L0 0Z" fill="#9e0ca8"></path><path d="M434 0L384 0L384 26L465 26L465 52L448 52L448 78L457 78L457 104L482 104L482 130L329 130L329 157L321 157L321 183L367 183L367 209L355 209L355 235L450 235L450 261L519 261L519 287L343 287L343 313L440 313L440 339L471 339L471 365L503 365L503 391L495 391L495 417L423 417L423 443L316 443L316 470L508 470L508 496L381 496L381 522L375 522L375 548L446 548L446 574L454 574L454 600L0 600L0 574L0 574L0 548L0 548L0 522L0 522L0 496L0 496L0 470L0 470L0 443L0 443L0 417L0 417L0 391L0 391L0 365L0 365L0 339L0 339L0 313L0 313L0 287L0 287L0 261L0 261L0 235L0 235L0 209L0 209L0 183L0 183L0 157L0 157L0 130L0 130L0 104L0 104L0 78L0 78L0 52L0 52L0 26L0 26L0 0L0 0Z" fill="#b50db6"></path><path d="M414 0L303 0L303 26L319 26L319 52L334 52L334 78L387 78L387 104L324 104L324 130L376 130L376 157L329 157L329 183L337 183L337 209L236 209L236 235L384 235L384 261L318 261L318 287L237 287L237 313L355 313L355 339L290 339L290 365L226 365L226 391L382 391L382 417L247 417L247 443L313 443L313 470L266 470L266 496L407 496L407 522L256 522L256 548L299 548L299 574L330 574L330 600L0 600L0 574L0 574L0 548L0 548L0 522L0 522L0 496L0 496L0 470L0 470L0 443L0 443L0 417L0 417L0 391L0 391L0 365L0 365L0 339L0 339L0 313L0 313L0 287L0 287L0 261L0 261L0 235L0 235L0 209L0 209L0 183L0 183L0 157L0 157L0 130L0 130L0 104L0 104L0 78L0 78L0 52L0 52L0 26L0 26L0 0L0 0Z" fill="#cd0dc3"></path><path d="M281 0L285 0L285 26L201 26L201 52L178 52L178 78L151 78L151 104L258 104L258 130L280 130L280 157L164 157L164 183L240 183L240 209L291 209L291 235L218 235L218 261L213 261L213 287L195 287L195 313L209 313L209 339L195 339L195 365L204 365L204 391L289 391L289 417L176 417L176 443L301 443L301 470L196 470L196 496L165 496L165 522L270 522L270 548L252 548L252 574L252 574L252 600L0 600L0 574L0 574L0 548L0 548L0 522L0 522L0 496L0 496L0 470L0 470L0 443L0 443L0 417L0 417L0 391L0 391L0 365L0 365L0 339L0 339L0 313L0 313L0 287L0 287L0 261L0 261L0 235L0 235L0 209L0 209L0 183L0 183L0 157L0 157L0 130L0 130L0 104L0 104L0 78L0 78L0 52L0 52L0 26L0 26L0 0L0 0Z" fill="#e60bd0"></path><path d="M91 0L81 0L81 26L94 26L94 52L117 52L117 78L180 78L180 104L82 104L82 130L152 130L152 157L94 157L94 183L171 183L171 209L167 209L167 235L152 235L152 261L163 261L163 287L155 287L155 313L75 313L75 339L102 339L102 365L167 365L167 391L73 391L73 417L130 417L130 443L71 443L71 470L108 470L108 496L105 496L105 522L109 522L109 548L67 548L67 574L146 574L146 600L0 600L0 574L0 574L0 548L0 548L0 522L0 522L0 496L0 496L0 470L0 470L0 443L0 443L0 417L0 417L0 391L0 391L0 365L0 365L0 339L0 339L0 313L0 313L0 287L0 287L0 261L0 261L0 235L0 235L0 209L0 209L0 183L0 183L0 157L0 157L0 130L0 130L0 104L0 104L0 78L0 78L0 52L0 52L0 26L0 26L0 0L0 0Z" fill="#ff08dc"></path></svg>