<svg id="visual" viewBox="0 0 2000 600" width="2000" height="600" xmlns="http://www.w3.org/2000/svg" xmlns:xlink="http://www.w3.org/1999/xlink" version="1.1"><rect x="0" y="0" width="2000" height="600" fill="#140021"></rect><path d="M1105 0L1055 0L1055 29L985 29L985 57L899 57L899 86L874 86L874 114L1029 114L1029 143L1055 143L1055 171L876 171L876 200L866 200L866 229L1030 229L1030 257L1049 257L1049 286L918 286L918 314L944 314L944 343L961 343L961 371L868 371L868 400L996 400L996 429L1105 429L1105 457L983 457L983 486L1073 486L1073 514L950 514L950 543L975 543L975 571L876 571L876 600L0 600L0 571L0 571L0 543L0 543L0 514L0 514L0 486L0 486L0 457L0 457L0 429L0 429L0 400L0 400L0 371L0 371L0 343L0 343L0 314L0 314L0 286L0 286L0 257L0 257L0 229L0 229L0 200L0 200L0 171L0 171L0 143L0 143L0 114L0 114L0 86L0 86L0 57L0 57L0 29L0 29L0 0L0 0Z" fill="#ff08dc"></path><path d="M911 0L893 0L893 29L1003 29L1003 57L861 57L861 86L911 86L911 114L797 114L797 143L997 143L997 171L944 171L944 200L916 200L916 229L992 229L992 257L956 257L956 286L866 286L866 314L976 314L976 343L853 343L853 371L828 371L828 400L1003 400L1003 429L886 429L886 457L855 457L855 486L920 486L920 514L802 514L802 543L853 543L853 571L1003 571L1003 600L0 600L0 571L0 571L0 543L0 543L0 514L0 514L0 486L0 486L0 457L0 457L0 429L0 429L0 400L0 400L0 371L0 371L0 343L0 343L0 314L0 314L0 286L0 286L0 257L0 257L0 229L0 229L0 200L0 200L0 171L0 171L0 143L0 143L0 114L0 114L0 86L0 86L0 57L0 57L0 29L0 29L0 0L0 0Z" fill="#e60bd0"></path><path d="M717 0L715 0L715 29L770 29L770 57L765 57L765 86L879 86L879 114L760 114L760 143L882 143L882 171L802 171L802 200L874 200L874 229L863 229L863 257L727 257L727 286L841 286L841 314L799 314L799 343L868 343L868 371L815 371L815 400L710 400L710 429L819 429L819 457L871 457L871 486L757 486L757 514L743 514L743 543L893 543L893 571L719 571L719 600L0 600L0 571L0 571L0 543L0 543L0 514L0 514L0 486L0 486L0 457L0 457L0 429L0 429L0 400L0 400L0 371L0 371L0 343L0 343L0 314L0 314L0 286L0 286L0 257L0 257L0 229L0 229L0 200L0 200L0 171L0 171L0 143L0 143L0 114L0 114L0 86L0 86L0 57L0 57L0 29L0 29L0 0L0 0Z" fill="#cd0dc3"></path><path d="M794 0L625 0L625 29L763 29L763 57L702 57L702 86L706 86L706 114L623 114L623 143L748 143L748 171L669 171L669 200L656 200L656 229L671 229L671 257L776 257L776 286L672 286L672 314L766 314L766 343L647 343L647 371L706 371L706 400L753 400L753 429L699 429L699 457L767 457L767 486L751 486L751 514L789 514L789 543L673 543L673 571L793 571L793 600L0 600L0 571L0 571L0 543L0 543L0 514L0 514L0 486L0 486L0 457L0 457L0 429L0 429L0 400L0 400L0 371L0 371L0 343L0 343L0 314L0 314L0 286L0 286L0 257L0 257L0 229L0 229L0 200L0 200L0 171L0 171L0 143L0 143L0 114L0 114L0 86L0 86L0 57L0 57L0 29L0 29L0 0L0 0Z" fill="#b50db6"></path><path d="M690 0L546 0L546 29L599 29L599 57L610 57L610 86L613 86L613 114L652 114L652 143L653 143L653 171L659 171L659 200L560 200L560 229L681 229L681 257L633 257L633 286L556 286L556 314L680 314L680 343L530 343L530 371L527 371L527 400L644 400L644 429L608 429L608 457L582 457L582 486L588 486L588 514L690 514L690 543L609 543L609 571L521 571L521 600L0 600L0 571L0 571L0 543L0 543L0 514L0 514L0 486L0 486L0 457L0 457L0 429L0 429L0 400L0 400L0 371L0 371L0 343L0 343L0 314L0 314L0 286L0 286L0 257L0 257L0 229L0 229L0 200L0 200L0 171L0 171L0 143L0 143L0 114L0 114L0 86L0 86L0 57L0 57L0 29L0 29L0 0L0 0Z" fill="#9e0ca8"></path><path d="M485 0L586 0L586 29L561 29L561 57L457 57L457 86L476 86L476 114L443 114L443 143L437 143L437 171L577 171L577 200L532 200L532 229L538 229L538 257L500 257L500 286L439 286L439 314L534 314L534 343L553 343L553 371L494 371L494 400L468 400L468 429L503 429L503 457L466 457L466 486L468 486L468 514L506 514L506 543L536 543L536 571L534 571L534 600L0 600L0 571L0 571L0 543L0 543L0 514L0 514L0 486L0 486L0 457L0 457L0 429L0 429L0 400L0 400L0 371L0 371L0 343L0 343L0 314L0 314L0 286L0 286L0 257L0 257L0 229L0 229L0 200L0 200L0 171L0 171L0 143L0 143L0 114L0 114L0 86L0 86L0 57L0 57L0 29L0 29L0 0L0 0Z" fill="#880a9a"></path><path d="M402 0L359 0L359 29L432 29L432 57L463 57L463 86L450 86L450 114L400 114L400 143L460 143L460 171L380 171L380 200L478 200L478 229L362 229L362 257L398 257L398 286L438 286L438 314L394 314L394 343L462 343L462 371L414 371L414 400L356 400L356 429L480 429L480 457L409 457L409 486L440 486L440 514L434 514L434 543L383 543L383 571L415 571L415 600L0 600L0 571L0 571L0 543L0 543L0 514L0 514L0 486L0 486L0 457L0 457L0 429L0 429L0 400L0 400L0 371L0 371L0 343L0 343L0 314L0 314L0 286L0 286L0 257L0 257L0 229L0 229L0 200L0 200L0 171L0 171L0 143L0 143L0 114L0 114L0 86L0 86L0 57L0 57L0 29L0 29L0 0L0 0Z" fill="#73078b"></path><path d="M376 0L368 0L368 29L334 29L334 57L349 57L349 86L295 86L295 114L332 114L332 143L351 143L351 171L306 171L306 200L374 200L374 229L281 229L281 257L273 257L273 286L303 286L303 314L268 314L268 343L263 343L263 371L319 371L319 400L336 400L336 429L322 429L322 457L334 457L334 486L308 486L308 514L360 514L360 543L359 543L359 571L295 571L295 600L0 600L0 571L0 571L0 543L0 543L0 514L0 514L0 486L0 486L0 457L0 457L0 429L0 429L0 400L0 400L0 371L0 371L0 343L0 343L0 314L0 314L0 286L0 286L0 257L0 257L0 229L0 229L0 200L0 200L0 171L0 171L0 143L0 143L0 114L0 114L0 86L0 86L0 57L0 57L0 29L0 29L0 0L0 0Z" fill="#5e047c"></path><path d="M181 0L188 0L188 29L200 29L200 57L217 57L217 86L229 86L229 114L258 114L258 143L194 143L194 171L230 171L230 200L249 200L249 229L260 229L260 257L263 257L263 286L245 286L245 314L203 314L203 343L253 343L253 371L239 371L239 400L236 400L236 429L241 429L241 457L236 457L236 486L247 486L247 514L243 514L243 543L228 543L228 571L222 571L222 600L0 600L0 571L0 571L0 543L0 543L0 514L0 514L0 486L0 486L0 457L0 457L0 429L0 429L0 400L0 400L0 371L0 371L0 343L0 343L0 314L0 314L0 286L0 286L0 257L0 257L0 229L0 229L0 200L0 200L0 171L0 171L0 143L0 143L0 114L0 114L0 86L0 86L0 57L0 57L0 29L0 29L0 0L0 0Z" fill="#4b026d"></path><path d="M162 0L112 0L112 29L97 29L97 57L93 57L93 86L133 86L133 114L124 114L124 143L126 143L126 171L90 171L90 200L108 200L108 229L161 229L161 257L115 257L115 286L131 286L131 314L133 314L133 343L115 343L115 371L122 371L122 400L111 400L111 429L159 429L159 457L133 457L133 486L161 486L161 514L128 514L128 543L119 543L119 571L95 571L95 600L0 600L0 571L0 571L0 543L0 543L0 514L0 514L0 486L0 486L0 457L0 457L0 429L0 429L0 400L0 400L0 371L0 371L0 343L0 343L0 314L0 314L0 286L0 286L0 257L0 257L0 229L0 229L0 200L0 200L0 171L0 171L0 143L0 143L0 114L0 114L0 86L0 86L0 57L0 57L0 29L0 29L0 0L0 0Z" fill="#38005e"></path></svg>
