<svg id="visual" viewBox="0 0 2000 600" width="2000" height="600" xmlns="http://www.w3.org/2000/svg" xmlns:xlink="http://www.w3.org/1999/xlink" version="1.1"><rect x="0" y="0" width="2000" height="600" fill="#140021"></rect><path d="M875 0L819 0L819 32L821 32L821 63L789 63L789 95L919 95L919 126L710 126L710 158L703 158L703 189L836 189L836 221L705 221L705 253L735 253L735 284L791 284L791 316L844 316L844 347L819 347L819 379L802 379L802 411L895 411L895 442L652 442L652 474L860 474L860 505L945 505L945 537L658 537L658 568L881 568L881 600L0 600L0 568L0 568L0 537L0 537L0 505L0 505L0 474L0 474L0 442L0 442L0 411L0 411L0 379L0 379L0 347L0 347L0 316L0 316L0 284L0 284L0 253L0 253L0 221L0 221L0 189L0 189L0 158L0 158L0 126L0 126L0 95L0 95L0 63L0 63L0 32L0 32L0 0L0 0Z" fill="#9900ff"></path><path d="M672 0L647 0L647 32L627 32L627 63L720 63L720 95L483 95L483 126L721 126L721 158L705 158L705 189L616 189L616 221L587 221L587 253L594 253L594 284L727 284L727 316L637 316L637 347L655 347L655 379L641 379L641 411L518 411L518 442L649 442L649 474L538 474L538 505L517 505L517 537L471 537L471 568L649 568L649 600L0 600L0 568L0 568L0 537L0 537L0 505L0 505L0 474L0 474L0 442L0 442L0 411L0 411L0 379L0 379L0 347L0 347L0 316L0 316L0 284L0 284L0 253L0 253L0 221L0 221L0 189L0 189L0 158L0 158L0 126L0 126L0 95L0 95L0 63L0 63L0 32L0 32L0 0L0 0Z" fill="#8200d9"></path><path d="M535 0L405 0L405 32L327 32L327 63L516 63L516 95L486 95L486 126L371 126L371 158L310 158L310 189L523 189L523 221L313 221L313 253L337 253L337 284L411 284L411 316L337 316L337 347L466 347L466 379L376 379L376 411L347 411L347 442L522 442L522 474L436 474L436 505L395 505L395 537L406 537L406 568L436 568L436 600L0 600L0 568L0 568L0 537L0 537L0 505L0 505L0 474L0 474L0 442L0 442L0 411L0 411L0 379L0 379L0 347L0 347L0 316L0 316L0 284L0 284L0 253L0 253L0 221L0 221L0 189L0 189L0 158L0 158L0 126L0 126L0 95L0 95L0 63L0 63L0 32L0 32L0 0L0 0Z" fill="#6c00b4"></path><path d="M244 0L172 0L172 32L164 32L164 63L290 63L290 95L301 95L301 126L318 126L318 158L201 158L201 189L244 189L244 221L321 221L321 253L151 253L151 284L152 284L152 316L285 316L285 347L219 347L219 379L307 379L307 411L226 411L226 442L230 442L230 474L170 474L170 505L202 505L202 537L197 537L197 568L230 568L230 600L0 600L0 568L0 568L0 537L0 537L0 505L0 505L0 474L0 474L0 442L0 442L0 411L0 411L0 379L0 379L0 347L0 347L0 316L0 316L0 284L0 284L0 253L0 253L0 221L0 221L0 189L0 189L0 158L0 158L0 126L0 126L0 95L0 95L0 63L0 63L0 32L0 32L0 0L0 0Z" fill="#560090"></path></svg>