<svg id="visual" viewBox="0 0 2000 600" width="2000" height="600" xmlns="http://www.w3.org/2000/svg" xmlns:xlink="http://www.w3.org/1999/xlink" version="1.1"><rect x="0" y="0" width="2000" height="600" fill="#000319"></rect><path d="M834 0L877 0L877 26L940 26L940 52L1150 52L1150 78L1134 78L1134 104L1017 104L1017 130L859 130L859 157L1104 157L1104 183L928 183L928 209L968 209L968 235L994 235L994 261L956 261L956 287L914 287L914 313L1021 313L1021 339L854 339L854 365L815 365L815 391L988 391L988 417L1001 417L1001 443L981 443L981 470L1135 470L1135 496L1086 496L1086 522L996 522L996 548L1147 548L1147 574L878 574L878 600L0 600L0 574L0 574L0 548L0 548L0 522L0 522L0 496L0 496L0 470L0 470L0 443L0 443L0 417L0 417L0 391L0 391L0 365L0 365L0 339L0 339L0 313L0 313L0 287L0 287L0 261L0 261L0 235L0 235L0 209L0 209L0 183L0 183L0 157L0 157L0 130L0 130L0 104L0 104L0 78L0 78L0 52L0 52L0 26L0 26L0 0L0 0Z" fill="#ff08dc"></path><path d="M746 0L729 0L729 26L822 26L822 52L895 52L895 78L756 78L756 104L899 104L899 130L1011 130L1011 157L943 157L943 183L918 183L918 209L724 209L724 235L1065 235L1065 261L856 261L856 287L955 287L955 313L850 313L850 339L833 339L833 365L995 365L995 391L965 391L965 417L931 417L931 443L883 443L883 470L1036 470L1036 496L883 496L883 522L940 522L940 548L729 548L729 574L853 574L853 600L0 600L0 574L0 574L0 548L0 548L0 522L0 522L0 496L0 496L0 470L0 470L0 443L0 443L0 417L0 417L0 391L0 391L0 365L0 365L0 339L0 339L0 313L0 313L0 287L0 287L0 261L0 261L0 235L0 235L0 209L0 209L0 183L0 183L0 157L0 157L0 130L0 130L0 104L0 104L0 78L0 78L0 52L0 52L0 26L0 26L0 0L0 0Z" fill="#e40ccf"></path><path d="M702 0L700 0L700 26L728 26L728 52L804 52L804 78L835 78L835 104L707 104L707 130L748 130L748 157L944 157L944 183L684 183L684 209L825 209L825 235L672 235L672 261L890 261L890 287L742 287L742 313L691 313L691 339L704 339L704 365L761 365L761 391L870 391L870 417L800 417L800 443L868 443L868 470L880 470L880 496L642 496L642 522L769 522L769 548L661 548L661 574L811 574L811 600L0 600L0 574L0 574L0 548L0 548L0 522L0 522L0 496L0 496L0 470L0 470L0 443L0 443L0 417L0 417L0 391L0 391L0 365L0 365L0 339L0 339L0 313L0 313L0 287L0 287L0 261L0 261L0 235L0 235L0 209L0 209L0 183L0 183L0 157L0 157L0 130L0 130L0 104L0 104L0 78L0 78L0 52L0 52L0 26L0 26L0 0L0 0Z" fill="#c90ec1"></path><path d="M734 0L732 0L732 26L615 26L615 52L790 52L790 78L842 78L842 104L832 104L832 130L845 130L845 157L728 157L728 183L855 183L855 209L728 209L728 235L803 235L803 261L674 261L674 287L715 287L715 313L674 313L674 339L582 339L582 365L853 365L853 391L789 391L789 417L824 417L824 443L698 443L698 470L624 470L624 496L860 496L860 522L749 522L749 548L595 548L595 574L556 574L556 600L0 600L0 574L0 574L0 548L0 548L0 522L0 522L0 496L0 496L0 470L0 470L0 443L0 443L0 417L0 417L0 391L0 391L0 365L0 365L0 339L0 339L0 313L0 313L0 287L0 287L0 261L0 261L0 235L0 235L0 209L0 209L0 183L0 183L0 157L0 157L0 130L0 130L0 104L0 104L0 78L0 78L0 52L0 52L0 26L0 26L0 0L0 0Z" fill="#b00eb3"></path><path d="M529 0L507 0L507 26L468 26L468 52L562 52L562 78L539 78L539 104L662 104L662 130L715 130L715 157L670 157L670 183L661 183L661 209L637 209L637 235L515 235L515 261L634 261L634 287L674 287L674 313L481 313L481 339L494 339L494 365L736 365L736 391L698 391L698 417L603 417L603 443L697 443L697 470L722 470L722 496L543 496L543 522L624 522L624 548L725 548L725 574L697 574L697 600L0 600L0 574L0 574L0 548L0 548L0 522L0 522L0 496L0 496L0 470L0 470L0 443L0 443L0 417L0 417L0 391L0 391L0 365L0 365L0 339L0 339L0 313L0 313L0 287L0 287L0 261L0 261L0 235L0 235L0 209L0 209L0 183L0 183L0 157L0 157L0 130L0 130L0 104L0 104L0 78L0 78L0 52L0 52L0 26L0 26L0 0L0 0Z" fill="#970da4"></path><path d="M636 0L621 0L621 26L396 26L396 52L490 52L490 78L584 78L584 104L592 104L592 130L454 130L454 157L563 157L563 183L467 183L467 209L473 209L473 235L532 235L532 261L605 261L605 287L443 287L443 313L563 313L563 339L464 339L464 365L570 365L570 391L412 391L412 417L536 417L536 443L400 443L400 470L522 470L522 496L635 496L635 522L519 522L519 548L505 548L505 574L593 574L593 600L0 600L0 574L0 574L0 548L0 548L0 522L0 522L0 496L0 496L0 470L0 470L0 443L0 443L0 417L0 417L0 391L0 391L0 365L0 365L0 339L0 339L0 313L0 313L0 287L0 287L0 261L0 261L0 235L0 235L0 209L0 209L0 183L0 183L0 157L0 157L0 130L0 130L0 104L0 104L0 78L0 78L0 52L0 52L0 26L0 26L0 0L0 0Z" fill="#7f0b94"></path><path d="M504 0L452 0L452 26L495 26L495 52L374 52L374 78L524 78L524 104L423 104L423 130L365 130L365 157L440 157L440 183L445 183L445 209L342 209L342 235L408 235L408 261L428 261L428 287L519 287L519 313L324 313L324 339L483 339L483 365L475 365L475 391L305 391L305 417L436 417L436 443L468 443L468 470L450 470L450 496L353 496L353 522L451 522L451 548L373 548L373 574L306 574L306 600L0 600L0 574L0 574L0 548L0 548L0 522L0 522L0 496L0 496L0 470L0 470L0 443L0 443L0 417L0 417L0 391L0 391L0 365L0 365L0 339L0 339L0 313L0 313L0 287L0 287L0 261L0 261L0 235L0 235L0 209L0 209L0 183L0 183L0 157L0 157L0 130L0 130L0 104L0 104L0 78L0 78L0 52L0 52L0 26L0 26L0 0L0 0Z" fill="#680884"></path><path d="M316 0L306 0L306 26L414 26L414 52L250 52L250 78L412 78L412 104L364 104L364 130L338 130L338 157L385 157L385 183L229 183L229 209L298 209L298 235L371 235L371 261L232 261L232 287L390 287L390 313L371 313L371 339L265 339L265 365L337 365L337 391L360 391L360 417L374 417L374 443L347 443L347 470L402 470L402 496L384 496L384 522L403 522L403 548L273 548L273 574L361 574L361 600L0 600L0 574L0 574L0 548L0 548L0 522L0 522L0 496L0 496L0 470L0 470L0 443L0 443L0 417L0 417L0 391L0 391L0 365L0 365L0 339L0 339L0 313L0 313L0 287L0 287L0 261L0 261L0 235L0 235L0 209L0 209L0 183L0 183L0 157L0 157L0 130L0 130L0 104L0 104L0 78L0 78L0 52L0 52L0 26L0 26L0 0L0 0Z" fill="#530574"></path><path d="M190 0L298 0L298 26L200 26L200 52L213 52L213 78L287 78L287 104L206 104L206 130L184 130L184 157L171 157L171 183L200 183L200 209L196 209L196 235L256 235L256 261L164 261L164 287L290 287L290 313L294 313L294 339L267 339L267 365L286 365L286 391L272 391L272 417L255 417L255 443L155 443L155 470L215 470L215 496L228 496L228 522L284 522L284 548L160 548L160 574L273 574L273 600L0 600L0 574L0 574L0 548L0 548L0 522L0 522L0 496L0 496L0 470L0 470L0 443L0 443L0 417L0 417L0 391L0 391L0 365L0 365L0 339L0 339L0 313L0 313L0 287L0 287L0 261L0 261L0 235L0 235L0 209L0 209L0 183L0 183L0 157L0 157L0 130L0 130L0 104L0 104L0 78L0 78L0 52L0 52L0 26L0 26L0 0L0 0Z" fill="#3e0264"></path><path d="M166 0L73 0L73 26L90 26L90 52L183 52L183 78L137 78L137 104L96 104L96 130L162 130L162 157L183 157L183 183L86 183L86 209L100 209L100 235L155 235L155 261L68 261L68 287L67 287L67 313L125 313L125 339L188 339L188 365L152 365L152 391L184 391L184 417L147 417L147 443L92 443L92 470L130 470L130 496L92 496L92 522L168 522L168 548L109 548L109 574L134 574L134 600L0 600L0 574L0 574L0 548L0 548L0 522L0 522L0 496L0 496L0 470L0 470L0 443L0 443L0 417L0 417L0 391L0 391L0 365L0 365L0 339L0 339L0 313L0 313L0 287L0 287L0 261L0 261L0 235L0 235L0 209L0 209L0 183L0 183L0 157L0 157L0 130L0 130L0 104L0 104L0 78L0 78L0 52L0 52L0 26L0 26L0 0L0 0Z" fill="#2a0053"></path></svg>