<svg id="visual" viewBox="0 0 3000 750" width="3000" height="750" xmlns="http://www.w3.org/2000/svg" xmlns:xlink="http://www.w3.org/1999/xlink" version="1.1"><path d="M0 547L71.5 545.5C143 544 286 541 428.8 534.8C571.7 528.7 714.3 519.3 857.2 517.2C1000 515 1143 520 1285.8 529.7C1428.7 539.3 1571.3 553.7 1714.2 549C1857 544.3 2000 520.7 2142.8 513.8C2285.7 507 2428.3 517 2571.2 522.7C2714 528.3 2857 529.7 2928.5 530.3L3000 531L3000 751L2928.5 751C2857 751 2714 751 2571.2 751C2428.3 751 2285.7 751 2142.8 751C2000 751 1857 751 1714.2 751C1571.3 751 1428.7 751 1285.8 751C1143 751 1000 751 857.2 751C714.3 751 571.7 751 428.8 751C286 751 143 751 71.5 751L0 751Z" fill="#00b98a"></path><path d="M0 606L71.5 605C143 604 286 602 428.8 598C571.7 594 714.3 588 857.2 580.5C1000 573 1143 564 1285.8 565.3C1428.7 566.7 1571.3 578.3 1714.2 582.8C1857 587.3 2000 584.7 2142.8 584.7C2285.7 584.7 2428.3 587.3 2571.2 584.2C2714 581 2857 572 2928.5 567.5L3000 563L3000 751L2928.5 751C2857 751 2714 751 2571.2 751C2428.3 751 2285.7 751 2142.8 751C2000 751 1857 751 1714.2 751C1571.3 751 1428.7 751 1285.8 751C1143 751 1000 751 857.2 751C714.3 751 571.7 751 428.8 751C286 751 143 751 71.5 751L0 751Z" fill="#00ab85"></path><path d="M0 607L71.5 606.3C143 605.7 286 604.3 428.8 607.7C571.7 611 714.3 619 857.2 621.8C1000 624.7 1143 622.3 1285.8 618.2C1428.7 614 1571.3 608 1714.2 612.2C1857 616.3 2000 630.7 2142.8 636.7C2285.7 642.7 2428.3 640.3 2571.2 638C2714 635.7 2857 633.3 2928.5 632.2L3000 631L3000 751L2928.5 751C2857 751 2714 751 2571.2 751C2428.3 751 2285.7 751 2142.8 751C2000 751 1857 751 1714.2 751C1571.3 751 1428.7 751 1285.8 751C1143 751 1000 751 857.2 751C714.3 751 571.7 751 428.8 751C286 751 143 751 71.5 751L0 751Z" fill="#009e80"></path><path d="M0 657L71.5 655.5C143 654 286 651 428.8 655.2C571.7 659.3 714.3 670.7 857.2 671.5C1000 672.3 1143 662.7 1285.8 656.5C1428.7 650.3 1571.3 647.7 1714.2 652.8C1857 658 2000 671 2142.8 669.8C2285.7 668.7 2428.3 653.3 2571.2 645C2714 636.7 2857 635.3 2928.5 634.7L3000 634L3000 751L2928.5 751C2857 751 2714 751 2571.2 751C2428.3 751 2285.7 751 2142.8 751C2000 751 1857 751 1714.2 751C1571.3 751 1428.7 751 1285.8 751C1143 751 1000 751 857.2 751C714.3 751 571.7 751 428.8 751C286 751 143 751 71.5 751L0 751Z" fill="#00907a"></path><path d="M0 685L71.5 686.8C143 688.7 286 692.3 428.8 698.2C571.7 704 714.3 712 857.2 708.5C1000 705 1143 690 1285.8 684C1428.7 678 1571.3 681 1714.2 688.7C1857 696.3 2000 708.7 2142.8 711.8C2285.7 715 2428.3 709 2571.2 709C2714 709 2857 715 2928.5 718L3000 721L3000 751L2928.5 751C2857 751 2714 751 2571.2 751C2428.3 751 2285.7 751 2142.8 751C2000 751 1857 751 1714.2 751C1571.3 751 1428.7 751 1285.8 751C1143 751 1000 751 857.2 751C714.3 751 571.7 751 428.8 751C286 751 143 751 71.5 751L0 751Z" fill="#038373"></path></svg>