<svg id="visual" viewBox="0 0 2600 600" width="2600" height="600" xmlns="http://www.w3.org/2000/svg" xmlns:xlink="http://www.w3.org/1999/xlink" version="1.1"><rect x="0" y="0" width="2600" height="600" fill="#5D91E6"></rect><path d="M0 375L61.8 371.8C123.7 368.7 247.3 362.3 371.2 360.8C495 359.3 619 362.7 742.8 363.3C866.7 364 990.3 362 1114.2 370.5C1238 379 1362 398 1485.8 407.3C1609.7 416.7 1733.3 416.3 1857.2 419.2C1981 422 2105 428 2228.8 421.8C2352.7 415.7 2476.3 397.3 2538.2 388.2L2600 379L2600 601L2538.2 601C2476.3 601 2352.7 601 2228.8 601C2105 601 1981 601 1857.2 601C1733.3 601 1609.7 601 1485.8 601C1362 601 1238 601 1114.2 601C990.3 601 866.7 601 742.8 601C619 601 495 601 371.2 601C247.3 601 123.7 601 61.8 601L0 601Z" fill="#00cdb5"></path><path d="M0 442L61.8 439.3C123.7 436.7 247.3 431.3 371.2 432.3C495 433.3 619 440.7 742.8 445.5C866.7 450.3 990.3 452.7 1114.2 445C1238 437.3 1362 419.7 1485.8 422C1609.7 424.3 1733.3 446.7 1857.2 457.2C1981 467.7 2105 466.3 2228.8 453.8C2352.7 441.3 2476.3 417.7 2538.2 405.8L2600 394L2600 601L2538.2 601C2476.3 601 2352.7 601 2228.8 601C2105 601 1981 601 1857.2 601C1733.3 601 1609.7 601 1485.8 601C1362 601 1238 601 1114.2 601C990.3 601 866.7 601 742.8 601C619 601 495 601 371.2 601C247.3 601 123.7 601 61.8 601L0 601Z" fill="#01baa4"></path><path d="M0 510L61.8 509.8C123.7 509.7 247.3 509.3 371.2 502.7C495 496 619 483 742.8 480.7C866.7 478.3 990.3 486.7 1114.2 492.7C1238 498.7 1362 502.3 1485.8 503.8C1609.7 505.3 1733.3 504.7 1857.2 497.8C1981 491 2105 478 2228.8 471.3C2352.7 464.7 2476.3 464.3 2538.2 464.2L2600 464L2600 601L2538.2 601C2476.3 601 2352.7 601 2228.8 601C2105 601 1981 601 1857.2 601C1733.3 601 1609.7 601 1485.8 601C1362 601 1238 601 1114.2 601C990.3 601 866.7 601 742.8 601C619 601 495 601 371.2 601C247.3 601 123.7 601 61.8 601L0 601Z" fill="#02a793"></path><path d="M0 500L61.8 497.2C123.7 494.3 247.3 488.7 371.2 487.5C495 486.3 619 489.7 742.8 493.2C866.7 496.7 990.3 500.3 1114.2 499.8C1238 499.3 1362 494.7 1485.8 494C1609.7 493.3 1733.3 496.7 1857.2 495.2C1981 493.7 2105 487.3 2228.8 490.2C2352.7 493 2476.3 505 2538.2 511L2600 517L2600 601L2538.2 601C2476.3 601 2352.7 601 2228.8 601C2105 601 1981 601 1857.2 601C1733.3 601 1609.7 601 1485.8 601C1362 601 1238 601 1114.2 601C990.3 601 866.7 601 742.8 601C619 601 495 601 371.2 601C247.3 601 123.7 601 61.8 601L0 601Z" fill="#039583"></path><path d="M0 526L61.8 531.7C123.7 537.3 247.3 548.7 371.2 550C495 551.3 619 542.7 742.8 538.7C866.7 534.7 990.3 535.3 1114.2 541.7C1238 548 1362 560 1485.8 564.7C1609.7 569.3 1733.3 566.7 1857.2 562.2C1981 557.7 2105 551.3 2228.8 551C2352.7 550.7 2476.3 556.3 2538.2 559.2L2600 562L2600 601L2538.2 601C2476.3 601 2352.7 601 2228.8 601C2105 601 1981 601 1857.2 601C1733.3 601 1609.7 601 1485.8 601C1362 601 1238 601 1114.2 601C990.3 601 866.7 601 742.8 601C619 601 495 601 371.2 601C247.3 601 123.7 601 61.8 601L0 601Z" fill="#038373"></path></svg>