<svg id="visual" viewBox="0 0 3000 700" width="3000" height="700" xmlns="http://www.w3.org/2000/svg" xmlns:xlink="http://www.w3.org/1999/xlink" version="1.1"><rect x="0" y="0" width="3000" height="700" fill="#001122"></rect><path d="M0 517L21.7 515C43.3 513 86.7 509 130.2 511C173.7 513 217.3 521 260.8 524.7C304.3 528.3 347.7 527.7 391.2 524C434.7 520.3 478.3 513.7 521.8 508.8C565.3 504 608.7 501 652.2 503.3C695.7 505.7 739.3 513.3 782.8 518.8C826.3 524.3 869.7 527.7 913 530C956.3 532.3 999.7 533.7 1043.2 531.2C1086.7 528.7 1130.3 522.3 1173.8 519C1217.3 515.7 1260.7 515.3 1304.2 514.2C1347.7 513 1391.3 511 1434.8 513.7C1478.3 516.3 1521.7 523.7 1565.2 525.8C1608.7 528 1652.3 525 1695.8 523.5C1739.3 522 1782.7 522 1826.2 521.8C1869.7 521.7 1913.3 521.3 1956.8 518C2000.3 514.7 2043.7 508.3 2087 507.3C2130.3 506.3 2173.7 510.7 2217.2 515.5C2260.7 520.3 2304.3 525.7 2347.8 523.7C2391.3 521.7 2434.7 512.3 2478.2 507.3C2521.7 502.3 2565.3 501.7 2608.8 505.2C2652.3 508.7 2695.7 516.3 2739.2 520.7C2782.7 525 2826.3 526 2869.8 527.7C2913.3 529.3 2956.7 531.7 2978.3 532.8L3000 534L3000 701L2978.3 701C2956.7 701 2913.3 701 2869.8 701C2826.3 701 2782.7 701 2739.2 701C2695.7 701 2652.3 701 2608.8 701C2565.3 701 2521.7 701 2478.2 701C2434.7 701 2391.3 701 2347.8 701C2304.3 701 2260.7 701 2217.2 701C2173.7 701 2130.3 701 2087 701C2043.7 701 2000.3 701 1956.8 701C1913.3 701 1869.7 701 1826.2 701C1782.7 701 1739.3 701 1695.8 701C1652.3 701 1608.7 701 1565.2 701C1521.7 701 1478.3 701 1434.8 701C1391.3 701 1347.7 701 1304.2 701C1260.7 701 1217.3 701 1173.8 701C1130.3 701 1086.7 701 1043.2 701C999.7 701 956.3 701 913 701C869.7 701 826.3 701 782.8 701C739.3 701 695.7 701 652.2 701C608.7 701 565.3 701 521.8 701C478.3 701 434.7 701 391.2 701C347.7 701 304.3 701 260.8 701C217.3 701 173.7 701 130.2 701C86.7 701 43.3 701 21.7 701L0 701Z" fill="#abcafd"></path><path d="M0 572L21.7 569.3C43.3 566.7 86.7 561.3 130.2 560.7C173.7 560 217.3 564 260.8 566C304.3 568 347.7 568 391.2 564.3C434.7 560.7 478.3 553.3 521.8 550.7C565.3 548 608.7 550 652.2 552.2C695.7 554.3 739.3 556.7 782.8 559.2C826.3 561.7 869.7 564.3 913 563.8C956.3 563.3 999.7 559.7 1043.2 558.7C1086.7 557.7 1130.3 559.3 1173.8 559C1217.3 558.7 1260.7 556.3 1304.2 558C1347.7 559.7 1391.3 565.3 1434.8 564.7C1478.3 564 1521.7 557 1565.2 555C1608.7 553 1652.3 556 1695.8 554.8C1739.3 553.7 1782.7 548.3 1826.2 546.2C1869.7 544 1913.3 545 1956.8 545.5C2000.3 546 2043.7 546 2087 549.5C2130.3 553 2173.7 560 2217.2 559.8C2260.7 559.7 2304.3 552.3 2347.8 551.3C2391.3 550.3 2434.7 555.7 2478.2 559.7C2521.7 563.7 2565.3 566.3 2608.8 563.7C2652.3 561 2695.7 553 2739.2 553C2782.7 553 2826.3 561 2869.8 563.2C2913.3 565.3 2956.7 561.7 2978.3 559.8L3000 558L3000 701L2978.3 701C2956.7 701 2913.3 701 2869.8 701C2826.3 701 2782.7 701 2739.2 701C2695.7 701 2652.3 701 2608.8 701C2565.3 701 2521.7 701 2478.2 701C2434.7 701 2391.3 701 2347.8 701C2304.3 701 2260.7 701 2217.2 701C2173.7 701 2130.3 701 2087 701C2043.7 701 2000.3 701 1956.8 701C1913.3 701 1869.7 701 1826.2 701C1782.7 701 1739.3 701 1695.8 701C1652.3 701 1608.7 701 1565.2 701C1521.7 701 1478.3 701 1434.8 701C1391.3 701 1347.7 701 1304.2 701C1260.7 701 1217.3 701 1173.8 701C1130.3 701 1086.7 701 1043.2 701C999.7 701 956.3 701 913 701C869.7 701 826.3 701 782.8 701C739.3 701 695.7 701 652.2 701C608.7 701 565.3 701 521.8 701C478.3 701 434.7 701 391.2 701C347.7 701 304.3 701 260.8 701C217.3 701 173.7 701 130.2 701C86.7 701 43.3 701 21.7 701L0 701Z" fill="#90bbfc"></path><path d="M0 606L21.7 606.5C43.3 607 86.7 608 130.2 608.7C173.7 609.3 217.3 609.7 260.8 608C304.3 606.3 347.7 602.7 391.2 600.2C434.7 597.7 478.3 596.3 521.8 597C565.3 597.7 608.7 600.3 652.2 603C695.7 605.7 739.3 608.3 782.8 607.2C826.3 606 869.7 601 913 598C956.3 595 999.7 594 1043.2 595.8C1086.7 597.7 1130.3 602.3 1173.8 602.5C1217.3 602.7 1260.7 598.3 1304.2 598.5C1347.7 598.7 1391.3 603.3 1434.8 604.7C1478.3 606 1521.7 604 1565.2 601.7C1608.7 599.3 1652.3 596.7 1695.8 595C1739.3 593.3 1782.7 592.7 1826.2 595.3C1869.7 598 1913.3 604 1956.8 603.7C2000.3 603.3 2043.7 596.7 2087 593.2C2130.3 589.7 2173.7 589.3 2217.2 589.8C2260.7 590.3 2304.3 591.7 2347.8 591.8C2391.3 592 2434.7 591 2478.2 590C2521.7 589 2565.3 588 2608.8 590.8C2652.3 593.7 2695.7 600.3 2739.2 603C2782.7 605.7 2826.3 604.3 2869.8 602.3C2913.3 600.3 2956.7 597.7 2978.3 596.3L3000 595L3000 701L2978.3 701C2956.7 701 2913.3 701 2869.8 701C2826.3 701 2782.7 701 2739.2 701C2695.7 701 2652.3 701 2608.8 701C2565.3 701 2521.7 701 2478.2 701C2434.7 701 2391.3 701 2347.8 701C2304.3 701 2260.7 701 2217.2 701C2173.7 701 2130.3 701 2087 701C2043.7 701 2000.3 701 1956.8 701C1913.3 701 1869.7 701 1826.2 701C1782.7 701 1739.3 701 1695.8 701C1652.3 701 1608.7 701 1565.2 701C1521.7 701 1478.3 701 1434.8 701C1391.3 701 1347.7 701 1304.2 701C1260.7 701 1217.3 701 1173.8 701C1130.3 701 1086.7 701 1043.2 701C999.7 701 956.3 701 913 701C869.7 701 826.3 701 782.8 701C739.3 701 695.7 701 652.2 701C608.7 701 565.3 701 521.8 701C478.3 701 434.7 701 391.2 701C347.7 701 304.3 701 260.8 701C217.3 701 173.7 701 130.2 701C86.7 701 43.3 701 21.7 701L0 701Z" fill="#76a8f4"></path><path d="M0 637L21.7 637.8C43.3 638.7 86.7 640.3 130.2 640.3C173.7 640.3 217.3 638.7 260.8 639.5C304.3 640.3 347.7 643.7 391.2 646C434.7 648.3 478.3 649.7 521.8 648.2C565.3 646.7 608.7 642.3 652.2 640.8C695.7 639.3 739.3 640.7 782.8 639.8C826.3 639 869.7 636 913 634.8C956.3 633.7 999.7 634.3 1043.2 637.3C1086.7 640.3 1130.3 645.7 1173.8 646.7C1217.3 647.7 1260.7 644.3 1304.2 643.7C1347.7 643 1391.3 645 1434.8 645.3C1478.3 645.7 1521.7 644.3 1565.2 643C1608.7 641.7 1652.3 640.3 1695.8 640C1739.3 639.7 1782.7 640.3 1826.2 640.5C1869.7 640.7 1913.3 640.3 1956.8 640.7C2000.3 641 2043.7 642 2087 643.5C2130.3 645 2173.7 647 2217.2 648.2C2260.7 649.3 2304.3 649.7 2347.8 647.7C2391.3 645.7 2434.7 641.3 2478.2 640.3C2521.7 639.3 2565.3 641.7 2608.8 644C2652.3 646.3 2695.7 648.7 2739.2 649.3C2782.7 650 2826.3 649 2869.8 647.7C2913.3 646.3 2956.7 644.7 2978.3 643.8L3000 643L3000 701L2978.3 701C2956.7 701 2913.3 701 2869.8 701C2826.3 701 2782.7 701 2739.2 701C2695.7 701 2652.3 701 2608.8 701C2565.3 701 2521.7 701 2478.2 701C2434.7 701 2391.3 701 2347.8 701C2304.3 701 2260.7 701 2217.2 701C2173.7 701 2130.3 701 2087 701C2043.7 701 2000.3 701 1956.8 701C1913.3 701 1869.7 701 1826.2 701C1782.7 701 1739.3 701 1695.8 701C1652.3 701 1608.7 701 1565.2 701C1521.7 701 1478.3 701 1434.8 701C1391.3 701 1347.7 701 1304.2 701C1260.7 701 1217.3 701 1173.8 701C1130.3 701 1086.7 701 1043.2 701C999.7 701 956.3 701 913 701C869.7 701 826.3 701 782.8 701C739.3 701 695.7 701 652.2 701C608.7 701 565.3 701 521.8 701C478.3 701 434.7 701 391.2 701C347.7 701 304.3 701 260.8 701C217.3 701 173.7 701 130.2 701C86.7 701 43.3 701 21.7 701L0 701Z" fill="#5d91e6"></path></svg>