<svg id="visual" viewBox="0 0 3000 750" width="3000" height="750" xmlns="http://www.w3.org/2000/svg" xmlns:xlink="http://www.w3.org/1999/xlink" version="1.1"><path d="M0 598L71.5 596.8C143 595.7 286 593.3 428.8 588.7C571.7 584 714.3 577 857.2 575.3C1000 573.7 1143 577.3 1285.8 584.5C1428.7 591.7 1571.3 602.3 1714.2 598.8C1857 595.3 2000 577.7 2142.8 572.5C2285.7 567.3 2428.3 574.7 2571.2 578.8C2714 583 2857 584 2928.5 584.5L3000 585L3000 751L2928.5 751C2857 751 2714 751 2571.2 751C2428.3 751 2285.7 751 2142.8 751C2000 751 1857 751 1714.2 751C1571.3 751 1428.7 751 1285.8 751C1143 751 1000 751 857.2 751C714.3 751 571.7 751 428.8 751C286 751 143 751 71.5 751L0 751Z" fill="#00b98a"></path><path d="M0 642L71.5 641.3C143 640.7 286 639.3 428.8 636.3C571.7 633.3 714.3 628.7 857.2 623C1000 617.3 1143 610.7 1285.8 611.7C1428.7 612.7 1571.3 621.3 1714.2 624.7C1857 628 2000 626 2142.8 626C2285.7 626 2428.3 628 2571.2 625.5C2714 623 2857 616 2928.5 612.5L3000 609L3000 751L2928.5 751C2857 751 2714 751 2571.2 751C2428.3 751 2285.7 751 2142.8 751C2000 751 1857 751 1714.2 751C1571.3 751 1428.7 751 1285.8 751C1143 751 1000 751 857.2 751C714.3 751 571.7 751 428.8 751C286 751 143 751 71.5 751L0 751Z" fill="#00ab85"></path><path d="M0 642L71.5 641.5C143 641 286 640 428.8 642.5C571.7 645 714.3 651 857.2 653.2C1000 655.3 1143 653.7 1285.8 650.7C1428.7 647.7 1571.3 643.3 1714.2 646.5C1857 649.7 2000 660.3 2142.8 664.8C2285.7 669.3 2428.3 667.7 2571.2 666C2714 664.3 2857 662.7 2928.5 661.8L3000 661L3000 751L2928.5 751C2857 751 2714 751 2571.2 751C2428.3 751 2285.7 751 2142.8 751C2000 751 1857 751 1714.2 751C1571.3 751 1428.7 751 1285.8 751C1143 751 1000 751 857.2 751C714.3 751 571.7 751 428.8 751C286 751 143 751 71.5 751L0 751Z" fill="#009e80"></path><path d="M0 680L71.5 678.8C143 677.7 286 675.3 428.8 678.5C571.7 681.7 714.3 690.3 857.2 691C1000 691.7 1143 684.3 1285.8 679.7C1428.7 675 1571.3 673 1714.2 676.8C1857 680.7 2000 690.3 2142.8 689.5C2285.7 688.7 2428.3 677.3 2571.2 671.2C2714 665 2857 664 2928.5 663.5L3000 663L3000 751L2928.5 751C2857 751 2714 751 2571.2 751C2428.3 751 2285.7 751 2142.8 751C2000 751 1857 751 1714.2 751C1571.3 751 1428.7 751 1285.8 751C1143 751 1000 751 857.2 751C714.3 751 571.7 751 428.8 751C286 751 143 751 71.5 751L0 751Z" fill="#00907a"></path><path d="M0 701L71.5 702.3C143 703.7 286 706.3 428.8 710.7C571.7 715 714.3 721 857.2 718.3C1000 715.7 1143 704.3 1285.8 699.8C1428.7 695.3 1571.3 697.7 1714.2 703.5C1857 709.3 2000 718.7 2142.8 721C2285.7 723.3 2428.3 718.7 2571.2 718.7C2714 718.7 2857 723.3 2928.5 725.7L3000 728L3000 751L2928.5 751C2857 751 2714 751 2571.2 751C2428.3 751 2285.7 751 2142.8 751C2000 751 1857 751 1714.2 751C1571.3 751 1428.7 751 1285.8 751C1143 751 1000 751 857.2 751C714.3 751 571.7 751 428.8 751C286 751 143 751 71.5 751L0 751Z" fill="#038373"></path></svg>