<svg id="visual" viewBox="0 0 3000 700" width="3000" height="700" xmlns="http://www.w3.org/2000/svg" xmlns:xlink="http://www.w3.org/1999/xlink" version="1.1"><rect x="0" y="0" width="3000" height="700" fill="#001122"></rect><path d="M0 410L62.5 417.7C125 425.3 250 440.7 375 437.8C500 435 625 414 750 411.5C875 409 1000 425 1125 432.3C1250 439.7 1375 438.3 1500 440.5C1625 442.7 1750 448.3 1875 449.8C2000 451.3 2125 448.7 2250 439.5C2375 430.3 2500 414.7 2625 407.7C2750 400.7 2875 402.3 2937.5 403.2L3000 404L3000 701L2937.5 701C2875 701 2750 701 2625 701C2500 701 2375 701 2250 701C2125 701 2000 701 1875 701C1750 701 1625 701 1500 701C1375 701 1250 701 1125 701C1000 701 875 701 750 701C625 701 500 701 375 701C250 701 125 701 62.5 701L0 701Z" fill="#00ffff"></path><path d="M0 520L62.5 514.5C125 509 250 498 375 493C500 488 625 489 750 483.5C875 478 1000 466 1125 463.2C1250 460.3 1375 466.7 1500 473C1625 479.3 1750 485.7 1875 485.2C2000 484.7 2125 477.3 2250 480.8C2375 484.3 2500 498.7 2625 505.5C2750 512.3 2875 511.7 2937.5 511.3L3000 511L3000 701L2937.5 701C2875 701 2750 701 2625 701C2500 701 2375 701 2250 701C2125 701 2000 701 1875 701C1750 701 1625 701 1500 701C1375 701 1250 701 1125 701C1000 701 875 701 750 701C625 701 500 701 375 701C250 701 125 701 62.5 701L0 701Z" fill="#00f7e4"></path><path d="M0 563L62.5 563.7C125 564.3 250 565.7 375 565.3C500 565 625 563 750 560C875 557 1000 553 1125 543.3C1250 533.7 1375 518.3 1500 512C1625 505.7 1750 508.3 1875 514.2C2000 520 2125 529 2250 535.8C2375 542.7 2500 547.3 2625 548.7C2750 550 2875 548 2937.5 547L3000 546L3000 701L2937.5 701C2875 701 2750 701 2625 701C2500 701 2375 701 2250 701C2125 701 2000 701 1875 701C1750 701 1625 701 1500 701C1375 701 1250 701 1125 701C1000 701 875 701 750 701C625 701 500 701 375 701C250 701 125 701 62.5 701L0 701Z" fill="#00eec7"></path><path d="M0 591L62.5 586C125 581 250 571 375 567.7C500 564.3 625 567.7 750 567.8C875 568 1000 565 1125 573.2C1250 581.3 1375 600.7 1500 605.3C1625 610 1750 600 1875 594.8C2000 589.7 2125 589.3 2250 593.5C2375 597.7 2500 606.3 2625 601.2C2750 596 2875 577 2937.5 567.5L3000 558L3000 701L2937.5 701C2875 701 2750 701 2625 701C2500 701 2375 701 2250 701C2125 701 2000 701 1875 701C1750 701 1625 701 1500 701C1375 701 1250 701 1125 701C1000 701 875 701 750 701C625 701 500 701 375 701C250 701 125 701 62.5 701L0 701Z" fill="#24e4a8"></path><path d="M0 622L62.5 624.2C125 626.3 250 630.7 375 630.8C500 631 625 627 750 625C875 623 1000 623 1125 621.8C1250 620.7 1375 618.3 1500 625.2C1625 632 1750 648 1875 650.3C2000 652.7 2125 641.3 2250 634.7C2375 628 2500 626 2625 631.7C2750 637.3 2875 650.7 2937.5 657.3L3000 664L3000 701L2937.5 701C2875 701 2750 701 2625 701C2500 701 2375 701 2250 701C2125 701 2000 701 1875 701C1750 701 1625 701 1500 701C1375 701 1250 701 1125 701C1000 701 875 701 750 701C625 701 500 701 375 701C250 701 125 701 62.5 701L0 701Z" fill="#3fd987"></path></svg>