<svg id="visual" viewBox="0 0 3000 850" width="3000" height="850" xmlns="http://www.w3.org/2000/svg" xmlns:xlink="http://www.w3.org/1999/xlink" version="1.1"><path d="M0 146L273 129L545 86L818 137L1091 154L1364 95L1636 137L1909 154L2182 69L2455 69L2727 112L3000 61L3000 0L2727 0L2455 0L2182 0L1909 0L1636 0L1364 0L1091 0L818 0L545 0L273 0L0 0Z" fill="#4facf7"></path><path d="M0 282L273 231L545 188L818 299L1091 282L1364 299L1636 341L1909 341L2182 205L2455 265L2727 333L3000 188L3000 59L2727 110L2455 67L2182 67L1909 152L1636 135L1364 93L1091 152L818 135L545 84L273 127L0 144Z" fill="#2b9dfc"></path><path d="M0 613L273 392L545 520L818 469L1091 435L1364 537L1636 485L1909 622L2182 460L2455 562L2727 537L3000 571L3000 186L2727 331L2455 263L2182 203L1909 339L1636 339L1364 297L1091 280L818 297L545 186L273 229L0 280Z" fill="#008cff"></path><path d="M0 749L273 520L545 588L818 562L1091 520L1364 605L1636 596L1909 749L2182 562L2455 664L2727 639L3000 681L3000 569L2727 535L2455 560L2182 458L1909 620L1636 483L1364 535L1091 433L818 467L545 518L273 390L0 611Z" fill="#007aff"></path><path d="M0 851L273 851L545 851L818 851L1091 851L1364 851L1636 851L1909 851L2182 851L2455 851L2727 851L3000 851L3000 679L2727 637L2455 662L2182 560L1909 747L1636 594L1364 603L1091 518L818 560L545 586L273 518L0 747Z" fill="#0066ff"></path></svg>