<svg id="visual" viewBox="0 0 2600 600" width="2600" height="600" xmlns="http://www.w3.org/2000/svg" xmlns:xlink="http://www.w3.org/1999/xlink" version="1.1"><path d="M0 79L54.2 72C108.3 65 216.7 51 325 51C433.3 51 541.7 65 650 71C758.3 77 866.7 75 975 68C1083.3 61 1191.7 49 1300 45C1408.3 41 1516.7 45 1625 48C1733.3 51 1841.7 53 1950 55C2058.3 57 2166.7 59 2275 56C2383.3 53 2491.7 45 2545.8 41L2600 37L2600 0L2545.8 0C2491.7 0 2383.3 0 2275 0C2166.7 0 2058.3 0 1950 0C1841.7 0 1733.3 0 1625 0C1516.7 0 1408.3 0 1300 0C1191.7 0 1083.3 0 975 0C866.7 0 758.3 0 650 0C541.7 0 433.3 0 325 0C216.7 0 108.3 0 54.2 0L0 0Z" fill="#5d91e6"></path><path d="M0 205L54.2 193C108.3 181 216.7 157 325 151C433.3 145 541.7 157 650 165C758.3 173 866.7 177 975 175C1083.3 173 1191.7 165 1300 165C1408.3 165 1516.7 173 1625 166C1733.3 159 1841.7 137 1950 135C2058.3 133 2166.7 151 2275 159C2383.3 167 2491.7 165 2545.8 164L2600 163L2600 35L2545.8 39C2491.7 43 2383.3 51 2275 54C2166.7 57 2058.3 55 1950 53C1841.7 51 1733.3 49 1625 46C1516.7 43 1408.3 39 1300 43C1191.7 47 1083.3 59 975 66C866.7 73 758.3 75 650 69C541.7 63 433.3 49 325 49C216.7 49 108.3 63 54.2 70L0 77Z" fill="#4d7dd2"></path><path d="M0 253L54.2 243C108.3 233 216.7 213 325 206C433.3 199 541.7 205 650 211C758.3 217 866.7 223 975 224C1083.3 225 1191.7 221 1300 225C1408.3 229 1516.7 241 1625 238C1733.3 235 1841.7 217 1950 210C2058.3 203 2166.7 207 2275 209C2383.3 211 2491.7 211 2545.8 211L2600 211L2600 161L2545.8 162C2491.7 163 2383.3 165 2275 157C2166.7 149 2058.3 131 1950 133C1841.7 135 1733.3 157 1625 164C1516.7 171 1408.3 163 1300 163C1191.7 163 1083.3 171 975 173C866.7 175 758.3 171 650 163C541.7 155 433.3 143 325 149C216.7 155 108.3 179 54.2 191L0 203Z" fill="#3e6abe"></path><path d="M0 319L54.2 315C108.3 311 216.7 303 325 294C433.3 285 541.7 275 650 275C758.3 275 866.7 285 975 289C1083.3 293 1191.7 291 1300 293C1408.3 295 1516.7 301 1625 300C1733.3 299 1841.7 291 1950 285C2058.3 279 2166.7 275 2275 273C2383.3 271 2491.7 271 2545.8 271L2600 271L2600 209L2545.8 209C2491.7 209 2383.3 209 2275 207C2166.7 205 2058.3 201 1950 208C1841.7 215 1733.3 233 1625 236C1516.7 239 1408.3 227 1300 223C1191.7 219 1083.3 223 975 222C866.7 221 758.3 215 650 209C541.7 203 433.3 197 325 204C216.7 211 108.3 231 54.2 241L0 251Z" fill="#2e58aa"></path><path d="M0 517L54.2 506C108.3 495 216.7 473 325 468C433.3 463 541.7 475 650 467C758.3 459 866.7 431 975 434C1083.3 437 1191.7 471 1300 473C1408.3 475 1516.7 445 1625 446C1733.3 447 1841.7 479 1950 473C2058.3 467 2166.7 423 2275 408C2383.3 393 2491.7 407 2545.8 414L2600 421L2600 269L2545.8 269C2491.7 269 2383.3 269 2275 271C2166.7 273 2058.3 277 1950 283C1841.7 289 1733.3 297 1625 298C1516.7 299 1408.3 293 1300 291C1191.7 289 1083.3 291 975 287C866.7 283 758.3 273 650 273C541.7 273 433.3 283 325 292C216.7 301 108.3 309 54.2 313L0 317Z" fill="#1c4696"></path><path d="M0 601L54.2 601C108.3 601 216.7 601 325 601C433.3 601 541.7 601 650 601C758.3 601 866.7 601 975 601C1083.3 601 1191.7 601 1300 601C1408.3 601 1516.7 601 1625 601C1733.3 601 1841.7 601 1950 601C2058.3 601 2166.7 601 2275 601C2383.3 601 2491.7 601 2545.8 601L2600 601L2600 419L2545.8 412C2491.7 405 2383.3 391 2275 406C2166.7 421 2058.3 465 1950 471C1841.7 477 1733.3 445 1625 444C1516.7 443 1408.3 473 1300 471C1191.7 469 1083.3 435 975 432C866.7 429 758.3 457 650 465C541.7 473 433.3 461 325 466C216.7 471 108.3 493 54.2 504L0 515Z" fill="#023583"></path></svg>