<svg id="visual" viewBox="0 0 3000 659" width="3000" height="659" xmlns="http://www.w3.org/2000/svg" xmlns:xlink="http://www.w3.org/1999/xlink" version="1.1"><path d="M0 47L273 113L545 47L818 113L1091 67L1364 93L1636 60L1909 47L2182 54L2455 34L2727 27L3000 34L3000 0L2727 0L2455 0L2182 0L1909 0L1636 0L1364 0L1091 0L818 0L545 0L273 0L0 0Z" fill="#ffd700"></path><path d="M0 80L273 139L545 126L818 166L1091 113L1364 172L1636 159L1909 126L2182 87L2455 133L2727 80L3000 47L3000 32L2727 25L2455 32L2182 52L1909 45L1636 58L1364 91L1091 65L818 111L545 45L273 111L0 45Z" fill="#edc500"></path><path d="M0 133L273 232L545 199L818 212L1091 258L1364 298L1636 278L1909 238L2182 212L2455 186L2727 159L3000 80L3000 45L2727 78L2455 131L2182 85L1909 124L1636 157L1364 170L1091 111L818 164L545 124L273 137L0 78Z" fill="#dbb300"></path><path d="M0 186L273 265L545 258L818 238L1091 278L1364 363L1636 311L1909 265L2182 265L2455 199L2727 186L3000 139L3000 78L2727 157L2455 184L2182 210L1909 236L1636 276L1364 296L1091 256L818 210L545 197L273 230L0 131Z" fill="#c9a200"></path><path d="M0 344L273 423L545 390L818 363L1091 475L1364 515L1636 410L1909 403L2182 482L2455 508L2727 410L3000 232L3000 137L2727 184L2455 197L2182 263L1909 263L1636 309L1364 361L1091 276L818 236L545 256L273 263L0 184Z" fill="#b79100"></path><path d="M0 574L273 601L545 561L818 588L1091 508L1364 555L1636 548L1909 502L2182 548L2455 574L2727 528L3000 568L3000 230L2727 408L2455 506L2182 480L1909 401L1636 408L1364 513L1091 473L818 361L545 388L273 421L0 342Z" fill="#a58000"></path><path d="M0 594L273 647L545 620L818 607L1091 594L1364 594L1636 594L1909 588L2182 627L2455 601L2727 594L3000 601L3000 566L2727 526L2455 572L2182 546L1909 500L1636 546L1364 553L1091 506L818 586L545 559L273 599L0 572Z" fill="#937000"></path><path d="M0 660L273 660L545 660L818 660L1091 660L1364 660L1636 660L1909 660L2182 660L2455 660L2727 660L3000 660L3000 599L2727 592L2455 599L2182 625L1909 586L1636 592L1364 592L1091 592L818 605L545 618L273 645L0 592Z" fill="#816100"></path></svg>