<svg id="visual" viewBox="0 0 8000 700" width="8000" height="700" xmlns="http://www.w3.org/2000/svg" xmlns:xlink="http://www.w3.org/1999/xlink" version="1.1"><path d="M0 454L190.5 458.7C381 463.3 762 472.7 1143 480.7C1524 488.7 1905 495.3 2286 489.7C2667 484 3048 466 3428.8 467.7C3809.7 469.3 4190.3 490.7 4571.2 495.7C4952 500.7 5333 489.3 5714 482.8C6095 476.3 6476 474.7 6857 469.7C7238 464.7 7619 456.3 7809.5 452.2L8000 448L8000 701L7809.5 701C7619 701 7238 701 6857 701C6476 701 6095 701 5714 701C5333 701 4952 701 4571.2 701C4190.3 701 3809.7 701 3428.8 701C3048 701 2667 701 2286 701C1905 701 1524 701 1143 701C762 701 381 701 190.5 701L0 701Z" fill="#00b98a"></path><path d="M0 502L190.5 505C381 508 762 514 1143 515C1524 516 1905 512 2286 515.8C2667 519.7 3048 531.3 3428.8 541.8C3809.7 552.3 4190.3 561.7 4571.2 551C4952 540.3 5333 509.7 5714 507.3C6095 505 6476 531 6857 541C7238 551 7619 545 7809.5 542L8000 539L8000 701L7809.5 701C7619 701 7238 701 6857 701C6476 701 6095 701 5714 701C5333 701 4952 701 4571.2 701C4190.3 701 3809.7 701 3428.8 701C3048 701 2667 701 2286 701C1905 701 1524 701 1143 701C762 701 381 701 190.5 701L0 701Z" fill="#00a784"></path><path d="M0 574L190.5 581C381 588 762 602 1143 599C1524 596 1905 576 2286 565.8C2667 555.7 3048 555.3 3428.8 563.7C3809.7 572 4190.3 589 4571.2 597.3C4952 605.7 5333 605.3 5714 597.8C6095 590.3 6476 575.7 6857 571.5C7238 567.3 7619 573.7 7809.5 576.8L8000 580L8000 701L7809.5 701C7619 701 7238 701 6857 701C6476 701 6095 701 5714 701C5333 701 4952 701 4571.2 701C4190.3 701 3809.7 701 3428.8 701C3048 701 2667 701 2286 701C1905 701 1524 701 1143 701C762 701 381 701 190.5 701L0 701Z" fill="#00957c"></path><path d="M0 632L190.5 626.5C381 621 762 610 1143 607.7C1524 605.3 1905 611.7 2286 620.8C2667 630 3048 642 3428.8 649.5C3809.7 657 4190.3 660 4571.2 652C4952 644 5333 625 5714 623.2C6095 621.3 6476 636.7 6857 645.3C7238 654 7619 656 7809.5 657L8000 658L8000 701L7809.5 701C7619 701 7238 701 6857 701C6476 701 6095 701 5714 701C5333 701 4952 701 4571.2 701C4190.3 701 3809.7 701 3428.8 701C3048 701 2667 701 2286 701C1905 701 1524 701 1143 701C762 701 381 701 190.5 701L0 701Z" fill="#038373"></path></svg>