<svg id="visual" viewBox="0 0 8000 700" width="8000" height="700" xmlns="http://www.w3.org/2000/svg" xmlns:xlink="http://www.w3.org/1999/xlink" version="1.1"><path d="M0 469L190.5 474C381 479 762 489 1143 499.3C1524 509.7 1905 520.3 2286 517.3C2667 514.3 3048 497.7 3428.8 502.7C3809.7 507.7 4190.3 534.3 4571.2 547.2C4952 560 5333 559 5714 555.8C6095 552.7 6476 547.3 6857 535C7238 522.7 7619 503.3 7809.5 493.7L8000 484L8000 701L7809.5 701C7619 701 7238 701 6857 701C6476 701 6095 701 5714 701C5333 701 4952 701 4571.2 701C4190.3 701 3809.7 701 3428.8 701C3048 701 2667 701 2286 701C1905 701 1524 701 1143 701C762 701 381 701 190.5 701L0 701Z" fill="#00b98a"></path><path d="M0 586L190.5 586.2C381 586.3 762 586.7 1143 587.3C1524 588 1905 589 2286 585.7C2667 582.3 3048 574.7 3428.8 568.3C3809.7 562 4190.3 557 4571.2 550.8C4952 544.7 5333 537.3 5714 535.3C6095 533.3 6476 536.7 6857 545.3C7238 554 7619 568 7809.5 575L8000 582L8000 701L7809.5 701C7619 701 7238 701 6857 701C6476 701 6095 701 5714 701C5333 701 4952 701 4571.2 701C4190.3 701 3809.7 701 3428.8 701C3048 701 2667 701 2286 701C1905 701 1524 701 1143 701C762 701 381 701 190.5 701L0 701Z" fill="#00a784"></path><path d="M0 615L190.5 616.3C381 617.7 762 620.3 1143 616.5C1524 612.7 1905 602.3 2286 596C2667 589.7 3048 587.3 3428.8 586.7C3809.7 586 4190.3 587 4571.2 594.5C4952 602 5333 616 5714 617.5C6095 619 6476 608 6857 602.8C7238 597.7 7619 598.3 7809.5 598.7L8000 599L8000 701L7809.5 701C7619 701 7238 701 6857 701C6476 701 6095 701 5714 701C5333 701 4952 701 4571.2 701C4190.3 701 3809.7 701 3428.8 701C3048 701 2667 701 2286 701C1905 701 1524 701 1143 701C762 701 381 701 190.5 701L0 701Z" fill="#00957c"></path><path d="M0 628L190.5 635C381 642 762 656 1143 662.2C1524 668.3 1905 666.7 2286 663.5C2667 660.3 3048 655.7 3428.8 648.2C3809.7 640.7 4190.3 630.3 4571.2 626.7C4952 623 5333 626 5714 625.8C6095 625.7 6476 622.3 6857 622.7C7238 623 7619 627 7809.5 629L8000 631L8000 701L7809.5 701C7619 701 7238 701 6857 701C6476 701 6095 701 5714 701C5333 701 4952 701 4571.2 701C4190.3 701 3809.7 701 3428.8 701C3048 701 2667 701 2286 701C1905 701 1524 701 1143 701C762 701 381 701 190.5 701L0 701Z" fill="#038373"></path></svg>