<svg id="visual" viewBox="0 0 8000 700" width="8000" height="700" xmlns="http://www.w3.org/2000/svg" xmlns:xlink="http://www.w3.org/1999/xlink" version="1.1"><path d="M0 524L190.5 529.2C381 534.3 762 544.7 1143 537.5C1524 530.3 1905 505.7 2286 502.5C2667 499.3 3048 517.7 3428.8 526.5C3809.7 535.3 4190.3 534.7 4571.2 539C4952 543.3 5333 552.7 5714 542C6095 531.3 6476 500.7 6857 491.2C7238 481.7 7619 493.3 7809.5 499.2L8000 505L8000 701L7809.5 701C7619 701 7238 701 6857 701C6476 701 6095 701 5714 701C5333 701 4952 701 4571.2 701C4190.3 701 3809.7 701 3428.8 701C3048 701 2667 701 2286 701C1905 701 1524 701 1143 701C762 701 381 701 190.5 701L0 701Z" fill="#abcafd"></path><path d="M0 535L190.5 541.8C381 548.7 762 562.3 1143 563.8C1524 565.3 1905 554.7 2286 558.8C2667 563 3048 582 3428.8 583.3C3809.7 584.7 4190.3 568.3 4571.2 560C4952 551.7 5333 551.3 5714 549.7C6095 548 6476 545 6857 542C7238 539 7619 536 7809.5 534.5L8000 533L8000 701L7809.5 701C7619 701 7238 701 6857 701C6476 701 6095 701 5714 701C5333 701 4952 701 4571.2 701C4190.3 701 3809.7 701 3428.8 701C3048 701 2667 701 2286 701C1905 701 1524 701 1143 701C762 701 381 701 190.5 701L0 701Z" fill="#92b7f6"></path><path d="M0 597L190.5 595.2C381 593.3 762 589.7 1143 588.2C1524 586.7 1905 587.3 2286 587.5C2667 587.7 3048 587.3 3428.8 589.2C3809.7 591 4190.3 595 4571.2 601.8C4952 608.7 5333 618.3 5714 620.8C6095 623.3 6476 618.7 6857 613.3C7238 608 7619 602 7809.5 599L8000 596L8000 701L7809.5 701C7619 701 7238 701 6857 701C6476 701 6095 701 5714 701C5333 701 4952 701 4571.2 701C4190.3 701 3809.7 701 3428.8 701C3048 701 2667 701 2286 701C1905 701 1524 701 1143 701C762 701 381 701 190.5 701L0 701Z" fill="#78a4ee"></path><path d="M0 661L190.5 653.5C381 646 762 631 1143 631C1524 631 1905 646 2286 654C2667 662 3048 663 3428.8 659.3C3809.7 655.7 4190.3 647.3 4571.2 641C4952 634.7 5333 630.3 5714 627C6095 623.7 6476 621.3 6857 620.8C7238 620.3 7619 621.7 7809.5 622.3L8000 623L8000 701L7809.5 701C7619 701 7238 701 6857 701C6476 701 6095 701 5714 701C5333 701 4952 701 4571.2 701C4190.3 701 3809.7 701 3428.8 701C3048 701 2667 701 2286 701C1905 701 1524 701 1143 701C762 701 381 701 190.5 701L0 701Z" fill="#5d91e6"></path></svg>