<svg id="visual" viewBox="0 0 8000 700" width="8000" height="700" xmlns="http://www.w3.org/2000/svg" xmlns:xlink="http://www.w3.org/1999/xlink" version="1.1"><path d="M0 85L727 85L1455 78L2182 50L2909 106L3636 99L4364 50L5091 92L5818 113L6545 78L7273 78L8000 92L8000 0L7273 0L6545 0L5818 0L5091 0L4364 0L3636 0L2909 0L2182 0L1455 0L727 0L0 0Z" fill="#00cc8e"></path><path d="M0 225L727 358L1455 302L2182 190L2909 302L3636 253L4364 253L5091 232L5818 218L6545 253L7273 323L8000 288L8000 90L7273 76L6545 76L5818 111L5091 90L4364 48L3636 97L2909 104L2182 48L1455 76L727 83L0 83Z" fill="#00b98a"></path><path d="M0 519L727 498L1455 470L2182 428L2909 463L3636 533L4364 547L5091 421L5818 484L6545 484L7273 456L8000 526L8000 286L7273 321L6545 251L5818 216L5091 230L4364 251L3636 251L2909 300L2182 188L1455 300L727 356L0 223Z" fill="#00a784"></path><path d="M0 603L727 561L1455 603L2182 540L2909 526L3636 603L4364 617L5091 540L5818 610L6545 540L7273 533L8000 631L8000 524L7273 454L6545 482L5818 482L5091 419L4364 545L3636 531L2909 461L2182 426L1455 468L727 496L0 517Z" fill="#00957c"></path><path d="M0 701L727 701L1455 701L2182 701L2909 701L3636 701L4364 701L5091 701L5818 701L6545 701L7273 701L8000 701L8000 629L7273 531L6545 538L5818 608L5091 538L4364 615L3636 601L2909 524L2182 538L1455 601L727 559L0 601Z" fill="#038373"></path></svg>